{
  "source": "C:\\Users\\Peter\\Desktop\\stuff\\MIUN\\quantitative_research\\video_compression\\videos\\BVI-HD\\BVI-HD_CDVL_videos\\ORIG\\Music_1920x1080_30fps.mp4",
  "output": "C:\\Users\\Peter\\Desktop\\stuff\\MIUN\\quantitative_research\\video_compression\\compressed_videos\\BVI-HD\\hevc\\2.5\\Music_1920x1080_30fps_hevc.mp4",
  "codec": "hevc",
  "ok": "Input #0, mov,mp4,m4a,3gp,3g2,mj2, from 'C:\\Users\\Peter\\Desktop\\stuff\\MIUN\\quantitative_research\\video_compression\\videos\\BVI-HD\\BVI-HD_CDVL_videos\\ORIG\\Music_1920x1080_30fps.mp4':\n  Metadata:\n    major_brand     : isom\n    minor_version   : 512\n    compatible_brands: isomiso2avc1mp41\n    encoder         : Lavf54.28.101\n  Duration: 00:00:05.00, start: 0.000000, bitrate: 192710 kb/s\n  Stream #0:0[0x1](und): Video: h264 (High 4:4:4 Predictive) (avc1 / 0x31637661), yuv420p(progressive), 1920x1080, 192707 kb/s, 30 fps, 30 tbr, 30 tbn (default)\n    Metadata:\n      handler_name    : VideoHandler\n      vendor_id       : [0][0][0][0]\n[out#0/mp4 @ 000001d699263e00] Codec AVOption b:a (set bitrate (in bits/s)) has not been used for any stream. The most likely reason is either wrong type (e.g. a video option with no video streams) or that it is a private option of some decoder which was not actually used for any stream.\nStream mapping:\n  Stream #0:0 -> #0:0 (h264 (native) -> hevc (libx265))\nPress [q] to stop, [?] for help\n[libx265 @ 000001d698dfd900] Unknown option: \"aq-mode.\nx265 [info]: HEVC encoder version 4.1+190-8f11c33ac\nx265 [info]: build info [Windows][GCC 15.1.0][64 bit] 10bit\nx265 [info]: using cpu capabilities: MMX2 SSE2Fast LZCNT SSSE3 SSE4.2 AVX FMA3 BMI2 AVX2\nx265 [info]: Main 10 profile, Level-4 (Main tier)\nx265 [info]: Thread pool created using 12 threads\nx265 [info]: Slices                              : 1\nx265 [info]: frame threads / pool features       : 3 / wpp(17 rows)\nx265 [info]: Coding QT: max CU size, min CU size : 64 / 8\nx265 [info]: Residual QT: max TU size, max depth : 32 / 1 inter / 1 intra\nx265 [info]: ME / range / subpel / merge         : star / 57 / 3 / 3\nx265 [info]: Keyframe min / max / scenecut / bias  : 25 / 250 / 40 / 5.00 \nx265 [info]: Lookahead / bframes / badapt        : 25 / 4 / 2\nx265 [info]: b-pyramid / weightp / weightb       : 1 / 1 / 0\nx265 [info]: References / ref-limit  cu / depth  : 4 / on / on\nx265 [info]: AQ: mode / str / qg-size / cu-tree  : 2 / 1.0 / 32 / 1\nx265 [info]: Rate Control / qCompress            : ABR-2500 kbps / 0.60\nx265 [info]: VBV/HRD buffer / max-rate / init    : 2500 / 2500 / 0.750\nx265 [info]: tools: rect limit-modes rd=4 psy-rd=2.00 rdoq=2 psy-rdoq=1.00\nx265 [info]: tools: rskip mode=1 signhide tmvp strong-intra-smoothing lslices=4\nx265 [info]: tools: deblock sao dhdr10-info\nOutput #0, mp4, to 'C:\\Users\\Peter\\Desktop\\stuff\\MIUN\\quantitative_research\\video_compression\\compressed_videos\\BVI-HD\\hevc\\2.5\\Music_1920x1080_30fps_hevc.mp4':\n  Metadata:\n    major_brand     : isom\n    minor_version   : 512\n    compatible_brands: isomiso2avc1mp41\n    encoder         : Lavf62.3.100\n  Stream #0:0(und): Video: hevc (hev1 / 0x31766568), yuv420p10le(tv, progressive), 1920x1080, q=2-31, 2500 kb/s, 30 fps, 15360 tbn (default)\n    Metadata:\n      encoder         : Lavc62.11.100 libx265\n      handler_name    : VideoHandler\n      vendor_id       : [0][0][0][0]\n    Side data:\n      cpb: bitrate max/min/avg: 2500000/0/2500000 buffer size: 2500000 vbv_delay: N/A\nframe=    0 fps=0.0 q=0.0 size=       0KiB time=N/A bitrate=N/A speed=N/A elapsed=0:00:01.08    \nframe=    0 fps=0.0 q=0.0 size=       0KiB time=N/A bitrate=N/A speed=N/A elapsed=0:00:01.68    \nframe=    0 fps=0.0 q=0.0 size=       0KiB time=N/A bitrate=N/A speed=N/A elapsed=0:00:02.23    \nframe=    0 fps=0.0 q=0.0 size=       0KiB time=N/A bitrate=N/A speed=N/A elapsed=0:00:02.74    \nframe=    0 fps=0.0 q=0.0 size=       0KiB time=N/A bitrate=N/A speed=N/A elapsed=0:00:03.28    \nframe=    0 fps=0.0 q=0.0 size=       0KiB time=N/A bitrate=N/A speed=N/A elapsed=0:00:03.79    \nframe=    0 fps=0.0 q=0.0 size=       0KiB time=N/A bitrate=N/A speed=N/A elapsed=0:00:04.30    \nframe=    0 fps=0.0 q=0.0 size=       0KiB time=N/A bitrate=N/A speed=N/A elapsed=0:00:04.86    \nframe=    0 fps=0.0 q=0.0 size=       0KiB time=N/A bitrate=N/A speed=N/A elapsed=0:00:05.38    \nframe=    0 fps=0.0 q=0.0 size=       0KiB time=N/A bitrate=N/A speed=N/A elapsed=0:00:05.89    \nframe=    0 fps=0.0 q=0.0 size=       0KiB time=N/A bitrate=N/A speed=N/A elapsed=0:00:06.42    \nframe=    0 fps=0.0 q=0.0 size=       0KiB time=N/A bitrate=N/A speed=N/A elapsed=0:00:06.94    \nframe=    0 fps=0.0 q=0.0 size=       0KiB time=N/A bitrate=N/A speed=N/A elapsed=0:00:07.50    \nframe=    0 fps=0.0 q=0.0 size=       0KiB time=N/A bitrate=N/A speed=N/A elapsed=0:00:08.03    \nframe=    0 fps=0.0 q=0.0 size=       0KiB time=N/A bitrate=N/A speed=N/A elapsed=0:00:08.55    \nframe=    0 fps=0.0 q=0.0 size=       0KiB time=N/A bitrate=N/A speed=N/A elapsed=0:00:09.09    \nframe=    1 fps=0.1 q=36.9 size=       0KiB time=-00:00:00.03 bitrate=N/A speed=N/A elapsed=0:00:09.62    \nframe=    1 fps=0.1 q=36.9 size=       0KiB time=-00:00:00.03 bitrate=N/A speed=N/A elapsed=0:00:10.16    \nframe=    1 fps=0.1 q=36.9 size=       0KiB time=-00:00:00.03 bitrate=N/A speed=N/A elapsed=0:00:10.68    \nframe=    1 fps=0.1 q=36.9 size=       0KiB time=-00:00:00.03 bitrate=N/A speed=N/A elapsed=0:00:11.21    \nframe=    1 fps=0.1 q=36.9 size=       0KiB time=-00:00:00.03 bitrate=N/A speed=N/A elapsed=0:00:11.73    \nframe=    1 fps=0.1 q=36.9 size=       0KiB time=-00:00:00.03 bitrate=N/A speed=N/A elapsed=0:00:12.25    \nframe=    2 fps=0.2 q=37.4 size=       0KiB time=00:00:00.00 bitrate=N/A speed=   0x elapsed=0:00:12.78    \nframe=    2 fps=0.1 q=37.4 size=       0KiB time=00:00:00.00 bitrate=N/A speed=   0x elapsed=0:00:13.33    \nframe=    2 fps=0.1 q=37.4 size=       0KiB time=00:00:00.00 bitrate=N/A speed=   0x elapsed=0:00:13.85    \nframe=    2 fps=0.1 q=37.4 size=       0KiB time=00:00:00.00 bitrate=N/A speed=   0x elapsed=0:00:14.36    \nframe=    2 fps=0.1 q=37.4 size=       0KiB time=00:00:00.00 bitrate=N/A speed=   0x elapsed=0:00:14.89    \nframe=    3 fps=0.2 q=39.2 size=       0KiB time=00:00:00.03 bitrate=  10.6kbits/s speed=0.00216x elapsed=0:00:15.40    \nframe=    3 fps=0.2 q=39.2 size=       0KiB time=00:00:00.03 bitrate=  10.6kbits/s speed=0.00209x elapsed=0:00:15.94    \nframe=    3 fps=0.2 q=39.2 size=       0KiB time=00:00:00.03 bitrate=  10.6kbits/s speed=0.00203x elapsed=0:00:16.45    \nframe=    3 fps=0.2 q=39.2 size=       0KiB time=00:00:00.03 bitrate=  10.6kbits/s speed=0.00196x elapsed=0:00:16.96    \nframe=    3 fps=0.2 q=39.2 size=       0KiB time=00:00:00.03 bitrate=  10.6kbits/s speed=0.00191x elapsed=0:00:17.49    \nframe=    3 fps=0.2 q=39.2 size=       0KiB time=00:00:00.03 bitrate=  10.6kbits/s speed=0.00185x elapsed=0:00:18.02    \nframe=    4 fps=0.2 q=34.2 size=       0KiB time=00:00:00.06 bitrate=   5.3kbits/s speed=0.00359x elapsed=0:00:18.54    \nframe=    4 fps=0.2 q=34.2 size=       0KiB time=00:00:00.06 bitrate=   5.3kbits/s speed=0.00349x elapsed=0:00:19.08    \nframe=    4 fps=0.2 q=34.2 size=       0KiB time=00:00:00.06 bitrate=   5.3kbits/s speed=0.00339x elapsed=0:00:19.64    \nframe=    4 fps=0.2 q=34.2 size=       0KiB time=00:00:00.06 bitrate=   5.3kbits/s speed=0.00331x elapsed=0:00:20.16    \nframe=    4 fps=0.2 q=34.2 size=       0KiB time=00:00:00.06 bitrate=   5.3kbits/s speed=0.00322x elapsed=0:00:20.70    \nframe=    4 fps=0.2 q=34.2 size=       0KiB time=00:00:00.06 bitrate=   5.3kbits/s speed=0.00314x elapsed=0:00:21.23    \nframe=    5 fps=0.2 q=36.7 size=       0KiB time=00:00:00.10 bitrate=   3.5kbits/s speed=0.00459x elapsed=0:00:21.78    \nframe=    5 fps=0.2 q=36.7 size=       0KiB time=00:00:00.10 bitrate=   3.5kbits/s speed=0.00448x elapsed=0:00:22.31    \nframe=    5 fps=0.2 q=36.7 size=       0KiB time=00:00:00.10 bitrate=   3.5kbits/s speed=0.00438x elapsed=0:00:22.82    \nframe=    5 fps=0.2 q=36.7 size=       0KiB time=00:00:00.10 bitrate=   3.5kbits/s speed=0.00428x elapsed=0:00:23.34    \nframe=    5 fps=0.2 q=36.7 size=       0KiB time=00:00:00.10 bitrate=   3.5kbits/s speed=0.00419x elapsed=0:00:23.88    \nframe=    5 fps=0.2 q=36.7 size=       0KiB time=00:00:00.10 bitrate=   3.5kbits/s speed=0.00409x elapsed=0:00:24.42    \nframe=    5 fps=0.2 q=36.7 size=       0KiB time=00:00:00.10 bitrate=   3.5kbits/s speed=0.00401x elapsed=0:00:24.94    \nframe=    5 fps=0.2 q=36.7 size=       0KiB time=00:00:00.10 bitrate=   3.5kbits/s speed=0.00393x elapsed=0:00:25.45    \nframe=    6 fps=0.2 q=30.6 size=       0KiB time=00:00:00.13 bitrate=   2.6kbits/s speed=0.00513x elapsed=0:00:25.99    \nframe=    6 fps=0.2 q=30.6 size=       0KiB time=00:00:00.13 bitrate=   2.6kbits/s speed=0.00503x elapsed=0:00:26.51    \nframe=    6 fps=0.2 q=30.6 size=       0KiB time=00:00:00.13 bitrate=   2.6kbits/s speed=0.00493x elapsed=0:00:27.03    \nframe=    6 fps=0.2 q=30.6 size=       0KiB time=00:00:00.13 bitrate=   2.6kbits/s speed=0.00484x elapsed=0:00:27.56    \nframe=    6 fps=0.2 q=30.6 size=       0KiB time=00:00:00.13 bitrate=   2.6kbits/s speed=0.00474x elapsed=0:00:28.11    \nframe=    7 fps=0.2 q=33.7 size=       0KiB time=00:00:00.16 bitrate=   2.1kbits/s speed=0.00582x elapsed=0:00:28.64    \nframe=    7 fps=0.2 q=33.7 size=       0KiB time=00:00:00.16 bitrate=   2.1kbits/s speed=0.00572x elapsed=0:00:29.15    \nframe=    7 fps=0.2 q=33.7 size=       0KiB time=00:00:00.16 bitrate=   2.1kbits/s speed=0.00562x elapsed=0:00:29.67    \nframe=    8 fps=0.3 q=30.4 size=       0KiB time=00:00:00.20 bitrate=   1.8kbits/s speed=0.00663x elapsed=0:00:30.18    \nframe=    8 fps=0.3 q=30.4 size=       0KiB time=00:00:00.20 bitrate=   1.8kbits/s speed=0.00651x elapsed=0:00:30.71    \nframe=    8 fps=0.3 q=30.4 size=       0KiB time=00:00:00.20 bitrate=   1.8kbits/s speed=0.0064x elapsed=0:00:31.23    \nframe=    8 fps=0.3 q=30.4 size=       0KiB time=00:00:00.20 bitrate=   1.8kbits/s speed=0.0063x elapsed=0:00:31.75    \nframe=    8 fps=0.2 q=30.4 size=       0KiB time=00:00:00.20 bitrate=   1.8kbits/s speed=0.0062x elapsed=0:00:32.26    \nframe=    9 fps=0.3 q=32.1 size=       0KiB time=00:00:00.23 bitrate=   1.5kbits/s speed=0.00712x elapsed=0:00:32.78    \nframe=    9 fps=0.3 q=32.1 size=       0KiB time=00:00:00.23 bitrate=   1.5kbits/s speed=0.007x elapsed=0:00:33.31    \nframe=    9 fps=0.3 q=32.1 size=       0KiB time=00:00:00.23 bitrate=   1.5kbits/s speed=0.0069x elapsed=0:00:33.82    \nframe=    9 fps=0.3 q=32.1 size=       0KiB time=00:00:00.23 bitrate=   1.5kbits/s speed=0.00679x elapsed=0:00:34.34    \nframe=    9 fps=0.3 q=32.1 size=       0KiB time=00:00:00.23 bitrate=   1.5kbits/s speed=0.00669x elapsed=0:00:34.86    \nframe=   10 fps=0.3 q=33.1 size=       0KiB time=00:00:00.26 bitrate=   1.3kbits/s speed=0.00753x elapsed=0:00:35.39    \nframe=   10 fps=0.3 q=33.1 size=       0KiB time=00:00:00.26 bitrate=   1.3kbits/s speed=0.00743x elapsed=0:00:35.90    \nframe=   11 fps=0.3 q=30.5 size=       0KiB time=00:00:00.30 bitrate=   1.2kbits/s speed=0.00824x elapsed=0:00:36.41    \nframe=   11 fps=0.3 q=30.5 size=       0KiB time=00:00:00.30 bitrate=   1.2kbits/s speed=0.00812x elapsed=0:00:36.93    \nframe=   11 fps=0.3 q=30.5 size=       0KiB time=00:00:00.30 bitrate=   1.2kbits/s speed=0.00801x elapsed=0:00:37.47    \nframe=   11 fps=0.3 q=30.5 size=       0KiB time=00:00:00.30 bitrate=   1.2kbits/s speed=0.00789x elapsed=0:00:38.00    \nframe=   12 fps=0.3 q=31.4 size=       0KiB time=00:00:00.33 bitrate=   1.1kbits/s speed=0.00865x elapsed=0:00:38.54    \nframe=   12 fps=0.3 q=31.4 size=       0KiB time=00:00:00.33 bitrate=   1.1kbits/s speed=0.00853x elapsed=0:00:39.06    \nframe=   12 fps=0.3 q=31.4 size=       0KiB time=00:00:00.33 bitrate=   1.1kbits/s speed=0.00842x elapsed=0:00:39.59    \nframe=   12 fps=0.3 q=31.4 size=       0KiB time=00:00:00.33 bitrate=   1.1kbits/s speed=0.00831x elapsed=0:00:40.13    \nframe=   12 fps=0.3 q=31.4 size=       0KiB time=00:00:00.33 bitrate=   1.1kbits/s speed=0.0082x elapsed=0:00:40.66    \nframe=   12 fps=0.3 q=31.4 size=       0KiB time=00:00:00.33 bitrate=   1.1kbits/s speed=0.00809x elapsed=0:00:41.18    \nframe=   12 fps=0.3 q=31.4 size=       0KiB time=00:00:00.33 bitrate=   1.1kbits/s speed=0.00799x elapsed=0:00:41.73    \nframe=   12 fps=0.3 q=31.4 size=       0KiB time=00:00:00.33 bitrate=   1.1kbits/s speed=0.00788x elapsed=0:00:42.28    \nframe=   13 fps=0.3 q=33.5 size=       0KiB time=00:00:00.36 bitrate=   1.0kbits/s speed=0.00857x elapsed=0:00:42.79    \nframe=   13 fps=0.3 q=33.5 size=       0KiB time=00:00:00.36 bitrate=   1.0kbits/s speed=0.00846x elapsed=0:00:43.31    \nframe=   13 fps=0.3 q=33.5 size=       0KiB time=00:00:00.36 bitrate=   1.0kbits/s speed=0.00837x elapsed=0:00:43.82    \nframe=   14 fps=0.3 q=32.7 size=       0KiB time=00:00:00.40 bitrate=   0.9kbits/s speed=0.00902x elapsed=0:00:44.34    \nframe=   14 fps=0.3 q=32.7 size=       0KiB time=00:00:00.40 bitrate=   0.9kbits/s speed=0.00892x elapsed=0:00:44.86    \nframe=   14 fps=0.3 q=32.7 size=       0KiB time=00:00:00.40 bitrate=   0.9kbits/s speed=0.00882x elapsed=0:00:45.37    \nframe=   14 fps=0.3 q=32.7 size=       0KiB time=00:00:00.40 bitrate=   0.9kbits/s speed=0.00872x elapsed=0:00:45.89    \nframe=   15 fps=0.3 q=29.9 size=       0KiB time=00:00:00.43 bitrate=   0.8kbits/s speed=0.00934x elapsed=0:00:46.41    \nframe=   15 fps=0.3 q=29.9 size=       0KiB time=00:00:00.43 bitrate=   0.8kbits/s speed=0.00924x elapsed=0:00:46.91    \nframe=   16 fps=0.3 q=32.7 size=       0KiB time=00:00:00.46 bitrate=   0.8kbits/s speed=0.00984x elapsed=0:00:47.44    \nframe=   16 fps=0.3 q=32.7 size=       0KiB time=00:00:00.46 bitrate=   0.8kbits/s speed=0.00973x elapsed=0:00:47.95    \nframe=   16 fps=0.3 q=32.7 size=       0KiB time=00:00:00.46 bitrate=   0.8kbits/s speed=0.00963x elapsed=0:00:48.46    \nframe=   16 fps=0.3 q=32.7 size=       0KiB time=00:00:00.46 bitrate=   0.8kbits/s speed=0.00953x elapsed=0:00:48.98    \nframe=   16 fps=0.3 q=32.7 size=       0KiB time=00:00:00.46 bitrate=   0.8kbits/s speed=0.00942x elapsed=0:00:49.51    \nframe=   16 fps=0.3 q=32.7 size=       0KiB time=00:00:00.46 bitrate=   0.8kbits/s speed=0.00933x elapsed=0:00:50.02    \nframe=   17 fps=0.3 q=29.2 size=       0KiB time=00:00:00.50 bitrate=   0.7kbits/s speed=0.00989x elapsed=0:00:50.54    \nframe=   17 fps=0.3 q=29.2 size=       0KiB time=00:00:00.50 bitrate=   0.7kbits/s speed=0.00979x elapsed=0:00:51.06    \nframe=   17 fps=0.3 q=29.2 size=       0KiB time=00:00:00.50 bitrate=   0.7kbits/s speed=0.00969x elapsed=0:00:51.60    \nframe=   17 fps=0.3 q=29.2 size=       0KiB time=00:00:00.50 bitrate=   0.7kbits/s speed=0.00959x elapsed=0:00:52.12    \nframe=   17 fps=0.3 q=29.2 size=       0KiB time=00:00:00.50 bitrate=   0.7kbits/s speed=0.0095x elapsed=0:00:52.63    \nframe=   17 fps=0.3 q=29.2 size=       0KiB time=00:00:00.50 bitrate=   0.7kbits/s speed=0.00941x elapsed=0:00:53.15    \nframe=   17 fps=0.3 q=29.2 size=       0KiB time=00:00:00.50 bitrate=   0.7kbits/s speed=0.00932x elapsed=0:00:53.66    \nframe=   17 fps=0.3 q=29.2 size=       0KiB time=00:00:00.50 bitrate=   0.7kbits/s speed=0.00922x elapsed=0:00:54.20    \nframe=   17 fps=0.3 q=29.2 size=       0KiB time=00:00:00.50 bitrate=   0.7kbits/s speed=0.00914x elapsed=0:00:54.72    \nframe=   17 fps=0.3 q=29.2 size=       0KiB time=00:00:00.50 bitrate=   0.7kbits/s speed=0.00905x elapsed=0:00:55.25    \nframe=   17 fps=0.3 q=29.2 size=       0KiB time=00:00:00.50 bitrate=   0.7kbits/s speed=0.00897x elapsed=0:00:55.77    \nframe=   17 fps=0.3 q=29.2 size=       0KiB time=00:00:00.50 bitrate=   0.7kbits/s speed=0.00888x elapsed=0:00:56.29    \nframe=   18 fps=0.3 q=32.5 size=       0KiB time=00:00:00.53 bitrate=   0.7kbits/s speed=0.00939x elapsed=0:00:56.82    \nframe=   18 fps=0.3 q=32.5 size=       0KiB time=00:00:00.53 bitrate=   0.7kbits/s speed=0.0093x elapsed=0:00:57.36    \nframe=   18 fps=0.3 q=32.5 size=       0KiB time=00:00:00.53 bitrate=   0.7kbits/s speed=0.00921x elapsed=0:00:57.88    \nframe=   18 fps=0.3 q=32.5 size=       0KiB time=00:00:00.53 bitrate=   0.7kbits/s speed=0.00913x elapsed=0:00:58.41    \nframe=   18 fps=0.3 q=32.5 size=       0KiB time=00:00:00.53 bitrate=   0.7kbits/s speed=0.00905x elapsed=0:00:58.94    \nframe=   18 fps=0.3 q=32.5 size=       0KiB time=00:00:00.53 bitrate=   0.7kbits/s speed=0.00897x elapsed=0:00:59.47    \nframe=   18 fps=0.3 q=32.5 size=       0KiB time=00:00:00.53 bitrate=   0.7kbits/s speed=0.00889x elapsed=0:00:59.98    \nframe=   19 fps=0.3 q=29.5 size=       0KiB time=00:00:00.56 bitrate=   0.6kbits/s speed=0.00936x elapsed=0:01:00.51    \nframe=   19 fps=0.3 q=29.5 size=       0KiB time=00:00:00.56 bitrate=   0.6kbits/s speed=0.00928x elapsed=0:01:01.06    \nframe=   19 fps=0.3 q=29.5 size=       0KiB time=00:00:00.56 bitrate=   0.6kbits/s speed=0.0092x elapsed=0:01:01.57    \nframe=   19 fps=0.3 q=29.5 size=       0KiB time=00:00:00.56 bitrate=   0.6kbits/s speed=0.00913x elapsed=0:01:02.09    \nframe=   19 fps=0.3 q=29.5 size=       0KiB time=00:00:00.56 bitrate=   0.6kbits/s speed=0.00905x elapsed=0:01:02.61    \nframe=   19 fps=0.3 q=29.5 size=       0KiB time=00:00:00.56 bitrate=   0.6kbits/s speed=0.00897x elapsed=0:01:03.15    \nframe=   19 fps=0.3 q=29.5 size=       0KiB time=00:00:00.56 bitrate=   0.6kbits/s speed=0.0089x elapsed=0:01:03.69    \nframe=   19 fps=0.3 q=29.5 size=       0KiB time=00:00:00.56 bitrate=   0.6kbits/s speed=0.00882x elapsed=0:01:04.21    \nframe=   19 fps=0.3 q=29.5 size=       0KiB time=00:00:00.56 bitrate=   0.6kbits/s speed=0.00875x elapsed=0:01:04.74    \nframe=   19 fps=0.3 q=29.5 size=       0KiB time=00:00:00.56 bitrate=   0.6kbits/s speed=0.00868x elapsed=0:01:05.25    \nframe=   20 fps=0.3 q=29.2 size=       0KiB time=00:00:00.60 bitrate=   0.6kbits/s speed=0.00912x elapsed=0:01:05.77    \nframe=   20 fps=0.3 q=29.2 size=       0KiB time=00:00:00.60 bitrate=   0.6kbits/s speed=0.00905x elapsed=0:01:06.29    \nframe=   20 fps=0.3 q=29.2 size=       0KiB time=00:00:00.60 bitrate=   0.6kbits/s speed=0.00898x elapsed=0:01:06.82    \nframe=   20 fps=0.3 q=29.2 size=       0KiB time=00:00:00.60 bitrate=   0.6kbits/s speed=0.00891x elapsed=0:01:07.35    \nframe=   20 fps=0.3 q=29.2 size=       0KiB time=00:00:00.60 bitrate=   0.6kbits/s speed=0.00884x elapsed=0:01:07.90    \nframe=   21 fps=0.3 q=32.5 size=       0KiB time=00:00:00.63 bitrate=   0.6kbits/s speed=0.00925x elapsed=0:01:08.43    \nframe=   21 fps=0.3 q=32.5 size=       0KiB time=00:00:00.63 bitrate=   0.6kbits/s speed=0.00919x elapsed=0:01:08.95    \nframe=   21 fps=0.3 q=32.5 size=       0KiB time=00:00:00.63 bitrate=   0.6kbits/s speed=0.00912x elapsed=0:01:09.47    \nframe=   21 fps=0.3 q=32.5 size=       0KiB time=00:00:00.63 bitrate=   0.6kbits/s speed=0.00905x elapsed=0:01:09.99    \nframe=   21 fps=0.3 q=32.5 size=       0KiB time=00:00:00.63 bitrate=   0.6kbits/s speed=0.00898x elapsed=0:01:10.50    \nframe=   21 fps=0.3 q=32.5 size=       0KiB time=00:00:00.63 bitrate=   0.6kbits/s speed=0.00892x elapsed=0:01:11.02    \nframe=   21 fps=0.3 q=32.5 size=       0KiB time=00:00:00.63 bitrate=   0.6kbits/s speed=0.00885x elapsed=0:01:11.55    \nframe=   22 fps=0.3 q=29.0 size=       0KiB time=00:00:00.66 bitrate=   0.5kbits/s speed=0.00925x elapsed=0:01:12.10    \nframe=   22 fps=0.3 q=29.0 size=       0KiB time=00:00:00.66 bitrate=   0.5kbits/s speed=0.00918x elapsed=0:01:12.63    \nframe=   22 fps=0.3 q=29.0 size=       0KiB time=00:00:00.66 bitrate=   0.5kbits/s speed=0.00911x elapsed=0:01:13.16    \nframe=   22 fps=0.3 q=29.0 size=       0KiB time=00:00:00.66 bitrate=   0.5kbits/s speed=0.00905x elapsed=0:01:13.68    \nframe=   22 fps=0.3 q=29.0 size=       0KiB time=00:00:00.66 bitrate=   0.5kbits/s speed=0.00898x elapsed=0:01:14.20    \nframe=   22 fps=0.3 q=29.0 size=       0KiB time=00:00:00.66 bitrate=   0.5kbits/s speed=0.00892x elapsed=0:01:14.71    \nframe=   23 fps=0.3 q=32.0 size=       0KiB time=00:00:00.70 bitrate=   0.5kbits/s speed=0.0093x elapsed=0:01:15.22    \nframe=   23 fps=0.3 q=32.0 size=       0KiB time=00:00:00.70 bitrate=   0.5kbits/s speed=0.00924x elapsed=0:01:15.76    \nframe=   23 fps=0.3 q=32.0 size=       0KiB time=00:00:00.70 bitrate=   0.5kbits/s speed=0.00918x elapsed=0:01:16.28    \nframe=   23 fps=0.3 q=32.0 size=       0KiB time=00:00:00.70 bitrate=   0.5kbits/s speed=0.00911x elapsed=0:01:16.80    \nframe=   23 fps=0.3 q=32.0 size=       0KiB time=00:00:00.70 bitrate=   0.5kbits/s speed=0.00905x elapsed=0:01:17.31    \nframe=   23 fps=0.3 q=32.0 size=       0KiB time=00:00:00.70 bitrate=   0.5kbits/s speed=0.00899x elapsed=0:01:17.84    \nframe=   24 fps=0.3 q=28.9 size=       0KiB time=00:00:00.73 bitrate=   0.5kbits/s speed=0.00936x elapsed=0:01:18.35    \nframe=   24 fps=0.3 q=28.9 size=       0KiB time=00:00:00.73 bitrate=   0.5kbits/s speed=0.0093x elapsed=0:01:18.88    \nframe=   24 fps=0.3 q=28.9 size=       0KiB time=00:00:00.73 bitrate=   0.5kbits/s speed=0.00924x elapsed=0:01:19.40    \nframe=   24 fps=0.3 q=28.9 size=       0KiB time=00:00:00.73 bitrate=   0.5kbits/s speed=0.00917x elapsed=0:01:19.93    \nframe=   24 fps=0.3 q=28.9 size=       0KiB time=00:00:00.73 bitrate=   0.5kbits/s speed=0.00911x elapsed=0:01:20.45    \nframe=   24 fps=0.3 q=28.9 size=       0KiB time=00:00:00.73 bitrate=   0.5kbits/s speed=0.00905x elapsed=0:01:21.03    \nframe=   24 fps=0.3 q=28.9 size=       0KiB time=00:00:00.73 bitrate=   0.5kbits/s speed=0.00899x elapsed=0:01:21.59    \nframe=   24 fps=0.3 q=28.9 size=       0KiB time=00:00:00.73 bitrate=   0.5kbits/s speed=0.00893x elapsed=0:01:22.11    \nframe=   24 fps=0.3 q=28.9 size=       0KiB time=00:00:00.73 bitrate=   0.5kbits/s speed=0.00886x elapsed=0:01:22.73    \nframe=   24 fps=0.3 q=28.9 size=       0KiB time=00:00:00.73 bitrate=   0.5kbits/s speed=0.0088x elapsed=0:01:23.30    \nframe=   24 fps=0.3 q=28.9 size=       0KiB time=00:00:00.73 bitrate=   0.5kbits/s speed=0.00874x elapsed=0:01:23.88    \nframe=   24 fps=0.3 q=28.9 size=       0KiB time=00:00:00.73 bitrate=   0.5kbits/s speed=0.00869x elapsed=0:01:24.40    \nframe=   24 fps=0.3 q=28.9 size=       0KiB time=00:00:00.73 bitrate=   0.5kbits/s speed=0.00863x elapsed=0:01:24.94    \nframe=   24 fps=0.3 q=28.9 size=       0KiB time=00:00:00.73 bitrate=   0.5kbits/s speed=0.00858x elapsed=0:01:25.47    \nframe=   24 fps=0.3 q=28.9 size=       0KiB time=00:00:00.73 bitrate=   0.5kbits/s speed=0.00852x elapsed=0:01:26.02    \nframe=   25 fps=0.3 q=29.1 size=       0KiB time=00:00:00.76 bitrate=   0.5kbits/s speed=0.00886x elapsed=0:01:26.54    \nframe=   25 fps=0.3 q=29.1 size=       0KiB time=00:00:00.76 bitrate=   0.5kbits/s speed=0.00881x elapsed=0:01:27.06    \nframe=   25 fps=0.3 q=29.1 size=       0KiB time=00:00:00.76 bitrate=   0.5kbits/s speed=0.00875x elapsed=0:01:27.60    \nframe=   25 fps=0.3 q=29.1 size=       0KiB time=00:00:00.76 bitrate=   0.5kbits/s speed=0.0087x elapsed=0:01:28.13    \nframe=   25 fps=0.3 q=29.1 size=       0KiB time=00:00:00.76 bitrate=   0.5kbits/s speed=0.00865x elapsed=0:01:28.66    \nframe=   25 fps=0.3 q=29.1 size=       0KiB time=00:00:00.76 bitrate=   0.5kbits/s speed=0.00859x elapsed=0:01:29.20    \nframe=   25 fps=0.3 q=29.1 size=       0KiB time=00:00:00.76 bitrate=   0.5kbits/s speed=0.00854x elapsed=0:01:29.74    \nframe=   25 fps=0.3 q=29.1 size=       0KiB time=00:00:00.76 bitrate=   0.5kbits/s speed=0.00849x elapsed=0:01:30.26    \nframe=   26 fps=0.3 q=31.8 size=       0KiB time=00:00:00.80 bitrate=   0.4kbits/s speed=0.00881x elapsed=0:01:30.78    \nframe=   26 fps=0.3 q=31.8 size=       0KiB time=00:00:00.80 bitrate=   0.4kbits/s speed=0.00876x elapsed=0:01:31.29    \nframe=   26 fps=0.3 q=31.8 size=       0KiB time=00:00:00.80 bitrate=   0.4kbits/s speed=0.00871x elapsed=0:01:31.81    \nframe=   26 fps=0.3 q=31.8 size=       0KiB time=00:00:00.80 bitrate=   0.4kbits/s speed=0.00867x elapsed=0:01:32.32    \nframe=   26 fps=0.3 q=31.8 size=       0KiB time=00:00:00.80 bitrate=   0.4kbits/s speed=0.00862x elapsed=0:01:32.84    \nframe=   26 fps=0.3 q=31.8 size=       0KiB time=00:00:00.80 bitrate=   0.4kbits/s speed=0.00857x elapsed=0:01:33.35    \nframe=   26 fps=0.3 q=31.8 size=       0KiB time=00:00:00.80 bitrate=   0.4kbits/s speed=0.00852x elapsed=0:01:33.90    \nframe=   26 fps=0.3 q=31.8 size=       0KiB time=00:00:00.80 bitrate=   0.4kbits/s speed=0.00847x elapsed=0:01:34.42    \nframe=   26 fps=0.3 q=31.8 size=       0KiB time=00:00:00.80 bitrate=   0.4kbits/s speed=0.00843x elapsed=0:01:34.93    \nframe=   27 fps=0.3 q=28.9 size=       0KiB time=00:00:00.83 bitrate=   0.4kbits/s speed=0.00873x elapsed=0:01:35.44    \nframe=   27 fps=0.3 q=28.9 size=       0KiB time=00:00:00.83 bitrate=   0.4kbits/s speed=0.00868x elapsed=0:01:35.98    \nframe=   27 fps=0.3 q=28.9 size=       0KiB time=00:00:00.83 bitrate=   0.4kbits/s speed=0.00863x elapsed=0:01:36.51    \nframe=   27 fps=0.3 q=28.9 size=       0KiB time=00:00:00.83 bitrate=   0.4kbits/s speed=0.00859x elapsed=0:01:37.03    \nframe=   27 fps=0.3 q=28.9 size=       0KiB time=00:00:00.83 bitrate=   0.4kbits/s speed=0.00854x elapsed=0:01:37.55    \nframe=   27 fps=0.3 q=28.9 size=       0KiB time=00:00:00.83 bitrate=   0.4kbits/s speed=0.00849x elapsed=0:01:38.10    \nframe=   28 fps=0.3 q=31.9 size=       0KiB time=00:00:00.86 bitrate=   0.4kbits/s speed=0.00879x elapsed=0:01:38.64    \nframe=   28 fps=0.3 q=31.9 size=       0KiB time=00:00:00.86 bitrate=   0.4kbits/s speed=0.00874x elapsed=0:01:39.16    \nframe=   28 fps=0.3 q=31.9 size=       0KiB time=00:00:00.86 bitrate=   0.4kbits/s speed=0.00869x elapsed=0:01:39.68    \nframe=   28 fps=0.3 q=31.9 size=       0KiB time=00:00:00.86 bitrate=   0.4kbits/s speed=0.00865x elapsed=0:01:40.19    \nframe=   28 fps=0.3 q=31.9 size=       0KiB time=00:00:00.86 bitrate=   0.4kbits/s speed=0.0086x elapsed=0:01:40.72    \nframe=   29 fps=0.3 q=29.4 size=       0KiB time=00:00:00.90 bitrate=   0.4kbits/s speed=0.00889x elapsed=0:01:41.25    \nframe=   29 fps=0.3 q=29.4 size=       0KiB time=00:00:00.90 bitrate=   0.4kbits/s speed=0.00884x elapsed=0:01:41.76    \nframe=   29 fps=0.3 q=29.4 size=       0KiB time=00:00:00.90 bitrate=   0.4kbits/s speed=0.0088x elapsed=0:01:42.32    \nframe=   29 fps=0.3 q=29.4 size=       0KiB time=00:00:00.90 bitrate=   0.4kbits/s speed=0.00875x elapsed=0:01:42.86    \nframe=   29 fps=0.3 q=29.4 size=       0KiB time=00:00:00.90 bitrate=   0.4kbits/s speed=0.0087x elapsed=0:01:43.39    \nframe=   30 fps=0.3 q=31.3 size=       0KiB time=00:00:00.93 bitrate=   0.4kbits/s speed=0.00898x elapsed=0:01:43.90    \nframe=   30 fps=0.3 q=31.3 size=       0KiB time=00:00:00.93 bitrate=   0.4kbits/s speed=0.00894x elapsed=0:01:44.41    \nframe=   30 fps=0.3 q=31.3 size=       0KiB time=00:00:00.93 bitrate=   0.4kbits/s speed=0.00889x elapsed=0:01:44.94    \nframe=   30 fps=0.3 q=31.3 size=       0KiB time=00:00:00.93 bitrate=   0.4kbits/s speed=0.00885x elapsed=0:01:45.47    \nframe=   30 fps=0.3 q=31.3 size=       0KiB time=00:00:00.93 bitrate=   0.4kbits/s speed=0.0088x elapsed=0:01:46.01    \nframe=   30 fps=0.3 q=31.3 size=       0KiB time=00:00:00.93 bitrate=   0.4kbits/s speed=0.00876x elapsed=0:01:46.56    \nframe=   31 fps=0.3 q=32.5 size=     256KiB time=00:00:00.96 bitrate=2169.8kbits/s speed=0.00903x elapsed=0:01:47.07    \nframe=   31 fps=0.3 q=32.5 size=     256KiB time=00:00:00.96 bitrate=2169.8kbits/s speed=0.00898x elapsed=0:01:47.60    \nframe=   31 fps=0.3 q=32.5 size=     256KiB time=00:00:00.96 bitrate=2169.8kbits/s speed=0.00894x elapsed=0:01:48.14    \nframe=   31 fps=0.3 q=32.5 size=     256KiB time=00:00:00.96 bitrate=2169.8kbits/s speed=0.0089x elapsed=0:01:48.67    \nframe=   31 fps=0.3 q=32.5 size=     256KiB time=00:00:00.96 bitrate=2169.8kbits/s speed=0.00885x elapsed=0:01:49.20    \nframe=   31 fps=0.3 q=32.5 size=     256KiB time=00:00:00.96 bitrate=2169.8kbits/s speed=0.00881x elapsed=0:01:49.71    \nframe=   31 fps=0.3 q=32.5 size=     256KiB time=00:00:00.96 bitrate=2169.8kbits/s speed=0.00877x elapsed=0:01:50.24    \nframe=   31 fps=0.3 q=32.5 size=     256KiB time=00:00:00.96 bitrate=2169.8kbits/s speed=0.00873x elapsed=0:01:50.78    \nframe=   32 fps=0.3 q=32.5 size=     256KiB time=00:00:01.00 bitrate=2097.5kbits/s speed=0.00898x elapsed=0:01:51.32    \nframe=   32 fps=0.3 q=32.5 size=     256KiB time=00:00:01.00 bitrate=2097.5kbits/s speed=0.00894x elapsed=0:01:51.85    \nframe=   32 fps=0.3 q=32.5 size=     256KiB time=00:00:01.00 bitrate=2097.5kbits/s speed=0.0089x elapsed=0:01:52.36    \nframe=   32 fps=0.3 q=32.5 size=     256KiB time=00:00:01.00 bitrate=2097.5kbits/s speed=0.00886x elapsed=0:01:52.88    \nframe=   32 fps=0.3 q=32.5 size=     256KiB time=00:00:01.00 bitrate=2097.5kbits/s speed=0.00882x elapsed=0:01:53.41    \nframe=   32 fps=0.3 q=32.5 size=     256KiB time=00:00:01.00 bitrate=2097.5kbits/s speed=0.00878x elapsed=0:01:53.95    \nframe=   32 fps=0.3 q=32.5 size=     256KiB time=00:00:01.00 bitrate=2097.5kbits/s speed=0.00874x elapsed=0:01:54.46    \nframe=   33 fps=0.3 q=29.8 size=     256KiB time=00:00:01.03 bitrate=2029.8kbits/s speed=0.00899x elapsed=0:01:54.98    \nframe=   33 fps=0.3 q=29.8 size=     256KiB time=00:00:01.03 bitrate=2029.8kbits/s speed=0.00895x elapsed=0:01:55.50    \nframe=   33 fps=0.3 q=29.8 size=     256KiB time=00:00:01.03 bitrate=2029.8kbits/s speed=0.00891x elapsed=0:01:56.02    \nframe=   33 fps=0.3 q=29.8 size=     256KiB time=00:00:01.03 bitrate=2029.8kbits/s speed=0.00887x elapsed=0:01:56.55    \nframe=   34 fps=0.3 q=32.3 size=     256KiB time=00:00:01.06 bitrate=1966.4kbits/s speed=0.00911x elapsed=0:01:57.07    \nframe=   34 fps=0.3 q=32.3 size=     256KiB time=00:00:01.06 bitrate=1966.4kbits/s speed=0.00907x elapsed=0:01:57.57    \nframe=   34 fps=0.3 q=32.3 size=     256KiB time=00:00:01.06 bitrate=1966.4kbits/s speed=0.00903x elapsed=0:01:58.09    \nframe=   35 fps=0.3 q=28.7 size=     256KiB time=00:00:01.10 bitrate=1906.8kbits/s speed=0.00927x elapsed=0:01:58.61    \nframe=   35 fps=0.3 q=28.7 size=     256KiB time=00:00:01.10 bitrate=1906.8kbits/s speed=0.00923x elapsed=0:01:59.15    \nframe=   36 fps=0.3 q=30.7 size=     256KiB time=00:00:01.13 bitrate=1850.7kbits/s speed=0.00947x elapsed=0:01:59.71    \nframe=   36 fps=0.3 q=30.7 size=     256KiB time=00:00:01.13 bitrate=1850.7kbits/s speed=0.00942x elapsed=0:02:00.25    \nframe=   36 fps=0.3 q=30.7 size=     256KiB time=00:00:01.13 bitrate=1850.7kbits/s speed=0.00938x elapsed=0:02:00.76    \nframe=   36 fps=0.3 q=30.7 size=     256KiB time=00:00:01.13 bitrate=1850.7kbits/s speed=0.00934x elapsed=0:02:01.30    \nframe=   37 fps=0.3 q=32.8 size=     256KiB time=00:00:01.16 bitrate=1797.9kbits/s speed=0.00958x elapsed=0:02:01.83    \nframe=   37 fps=0.3 q=32.8 size=     256KiB time=00:00:01.16 bitrate=1797.9kbits/s speed=0.00954x elapsed=0:02:02.34    \nframe=   37 fps=0.3 q=32.8 size=     256KiB time=00:00:01.16 bitrate=1797.9kbits/s speed=0.0095x elapsed=0:02:02.85    \nframe=   38 fps=0.3 q=33.3 size=     256KiB time=00:00:01.20 bitrate=1747.9kbits/s speed=0.00973x elapsed=0:02:03.38    \nframe=   38 fps=0.3 q=33.3 size=     256KiB time=00:00:01.20 bitrate=1747.9kbits/s speed=0.00969x elapsed=0:02:03.88    \nframe=   38 fps=0.3 q=33.3 size=     256KiB time=00:00:01.20 bitrate=1747.9kbits/s speed=0.00964x elapsed=0:02:04.41    \nframe=   38 fps=0.3 q=33.3 size=     256KiB time=00:00:01.20 bitrate=1747.9kbits/s speed=0.0096x elapsed=0:02:04.94    \nframe=   38 fps=0.3 q=33.3 size=     256KiB time=00:00:01.20 bitrate=1747.9kbits/s speed=0.00956x elapsed=0:02:05.49    \nframe=   38 fps=0.3 q=33.3 size=     256KiB time=00:00:01.20 bitrate=1747.9kbits/s speed=0.00952x elapsed=0:02:06.03    \nframe=   38 fps=0.3 q=33.3 size=     256KiB time=00:00:01.20 bitrate=1747.9kbits/s speed=0.00948x elapsed=0:02:06.62    \nframe=   39 fps=0.3 q=29.3 size=     256KiB time=00:00:01.23 bitrate=1700.7kbits/s speed=0.0097x elapsed=0:02:07.13    \nframe=   39 fps=0.3 q=29.3 size=     256KiB time=00:00:01.23 bitrate=1700.7kbits/s speed=0.00966x elapsed=0:02:07.66    \nframe=   39 fps=0.3 q=29.3 size=     256KiB time=00:00:01.23 bitrate=1700.7kbits/s speed=0.00962x elapsed=0:02:08.20    \nframe=   39 fps=0.3 q=29.3 size=     256KiB time=00:00:01.23 bitrate=1700.7kbits/s speed=0.00958x elapsed=0:02:08.72    \nframe=   40 fps=0.3 q=32.4 size=     256KiB time=00:00:01.26 bitrate=1655.9kbits/s speed=0.0098x elapsed=0:02:09.26    \nframe=   40 fps=0.3 q=32.4 size=     256KiB time=00:00:01.26 bitrate=1655.9kbits/s speed=0.00976x elapsed=0:02:09.80    \nframe=   40 fps=0.3 q=32.4 size=     256KiB time=00:00:01.26 bitrate=1655.9kbits/s speed=0.00972x elapsed=0:02:10.33    \nframe=   40 fps=0.3 q=32.4 size=     256KiB time=00:00:01.26 bitrate=1655.9kbits/s speed=0.00968x elapsed=0:02:10.88    \nframe=   41 fps=0.3 q=33.9 size=     256KiB time=00:00:01.30 bitrate=1613.5kbits/s speed=0.00989x elapsed=0:02:11.39    \nframe=   41 fps=0.3 q=33.9 size=     256KiB time=00:00:01.30 bitrate=1613.5kbits/s speed=0.00986x elapsed=0:02:11.90    \nframe=   42 fps=0.3 q=34.1 size=     256KiB time=00:00:01.33 bitrate=1573.1kbits/s speed=0.0101x elapsed=0:02:12.41    \nframe=   42 fps=0.3 q=34.1 size=     256KiB time=00:00:01.33 bitrate=1573.1kbits/s speed=0.01x elapsed=0:02:12.93    \nframe=   43 fps=0.3 q=29.6 size=     256KiB time=00:00:01.36 bitrate=1534.8kbits/s speed=0.0102x elapsed=0:02:13.45    \nframe=   44 fps=0.3 q=31.7 size=     256KiB time=00:00:01.40 bitrate=1498.2kbits/s speed=0.0105x elapsed=0:02:13.96    \nframe=   44 fps=0.3 q=31.7 size=     256KiB time=00:00:01.40 bitrate=1498.2kbits/s speed=0.0104x elapsed=0:02:14.48    \nframe=   45 fps=0.3 q=33.6 size=     256KiB time=00:00:01.43 bitrate=1463.4kbits/s speed=0.0106x elapsed=0:02:15.00    \nframe=   45 fps=0.3 q=33.6 size=     256KiB time=00:00:01.43 bitrate=1463.4kbits/s speed=0.0106x elapsed=0:02:15.52    \nframe=   46 fps=0.3 q=33.9 size=     256KiB time=00:00:01.46 bitrate=1430.1kbits/s speed=0.0108x elapsed=0:02:16.02    \nframe=   46 fps=0.3 q=33.9 size=     256KiB time=00:00:01.46 bitrate=1430.1kbits/s speed=0.0107x elapsed=0:02:16.54    \nframe=   46 fps=0.3 q=33.9 size=     256KiB time=00:00:01.46 bitrate=1430.1kbits/s speed=0.0107x elapsed=0:02:17.06    \nframe=   47 fps=0.3 q=33.9 size=     256KiB time=00:00:01.50 bitrate=1398.3kbits/s speed=0.0109x elapsed=0:02:17.58    \nframe=   47 fps=0.3 q=33.9 size=     256KiB time=00:00:01.50 bitrate=1398.3kbits/s speed=0.0109x elapsed=0:02:18.08    \nframe=   48 fps=0.3 q=29.8 size=     256KiB time=00:00:01.53 bitrate=1367.9kbits/s speed=0.0111x elapsed=0:02:18.60    \nframe=   49 fps=0.4 q=32.5 size=     256KiB time=00:00:01.56 bitrate=1338.8kbits/s speed=0.0113x elapsed=0:02:19.13    \nframe=   49 fps=0.4 q=32.5 size=     256KiB time=00:00:01.56 bitrate=1338.8kbits/s speed=0.0112x elapsed=0:02:19.65    \nframe=   50 fps=0.4 q=34.6 size=     512KiB time=00:00:01.60 bitrate=2621.7kbits/s speed=0.0114x elapsed=0:02:20.17    \nframe=   50 fps=0.4 q=34.6 size=     512KiB time=00:00:01.60 bitrate=2621.7kbits/s speed=0.0114x elapsed=0:02:20.69    \nframe=   51 fps=0.4 q=34.4 size=     512KiB time=00:00:01.63 bitrate=2568.2kbits/s speed=0.0116x elapsed=0:02:21.19    \nframe=   51 fps=0.4 q=34.4 size=     512KiB time=00:00:01.63 bitrate=2568.2kbits/s speed=0.0115x elapsed=0:02:21.71    \nframe=   52 fps=0.4 q=30.0 size=     512KiB time=00:00:01.66 bitrate=2516.8kbits/s speed=0.0117x elapsed=0:02:22.23    \nframe=   53 fps=0.4 q=31.9 size=     512KiB time=00:00:01.70 bitrate=2467.4kbits/s speed=0.0119x elapsed=0:02:22.74    \nframe=   53 fps=0.4 q=31.9 size=     512KiB time=00:00:01.70 bitrate=2467.4kbits/s speed=0.0119x elapsed=0:02:23.26    \nframe=   53 fps=0.4 q=31.9 size=     512KiB time=00:00:01.70 bitrate=2467.4kbits/s speed=0.0118x elapsed=0:02:23.78    \nframe=   54 fps=0.4 q=34.2 size=     512KiB time=00:00:01.73 bitrate=2420.0kbits/s speed=0.012x elapsed=0:02:24.29    \nframe=   54 fps=0.4 q=34.2 size=     512KiB time=00:00:01.73 bitrate=2420.0kbits/s speed=0.012x elapsed=0:02:24.83    \nframe=   54 fps=0.4 q=34.2 size=     512KiB time=00:00:01.73 bitrate=2420.0kbits/s speed=0.0119x elapsed=0:02:25.35    \nframe=   54 fps=0.4 q=34.2 size=     512KiB time=00:00:01.73 bitrate=2420.0kbits/s speed=0.0119x elapsed=0:02:25.87    \nframe=   54 fps=0.4 q=34.2 size=     512KiB time=00:00:01.73 bitrate=2420.0kbits/s speed=0.0118x elapsed=0:02:26.40    \nframe=   54 fps=0.4 q=34.2 size=     512KiB time=00:00:01.73 bitrate=2420.0kbits/s speed=0.0118x elapsed=0:02:26.93    \nframe=   55 fps=0.4 q=34.4 size=     512KiB time=00:00:01.76 bitrate=2374.3kbits/s speed=0.012x elapsed=0:02:27.46    \nframe=   55 fps=0.4 q=34.4 size=     512KiB time=00:00:01.76 bitrate=2374.3kbits/s speed=0.0119x elapsed=0:02:27.99    \nframe=   55 fps=0.4 q=34.4 size=     512KiB time=00:00:01.76 bitrate=2374.3kbits/s speed=0.0119x elapsed=0:02:28.51    \nframe=   56 fps=0.4 q=34.4 size=     512KiB time=00:00:01.80 bitrate=2330.4kbits/s speed=0.0121x elapsed=0:02:29.05    \nframe=   56 fps=0.4 q=34.4 size=     512KiB time=00:00:01.80 bitrate=2330.4kbits/s speed=0.012x elapsed=0:02:29.55    \nframe=   56 fps=0.4 q=34.4 size=     512KiB time=00:00:01.80 bitrate=2330.4kbits/s speed=0.012x elapsed=0:02:30.08    \nframe=   57 fps=0.4 q=30.0 size=     512KiB time=00:00:01.83 bitrate=2288.0kbits/s speed=0.0122x elapsed=0:02:30.60    \nframe=   57 fps=0.4 q=30.0 size=     512KiB time=00:00:01.83 bitrate=2288.0kbits/s speed=0.0121x elapsed=0:02:31.12    \nframe=   57 fps=0.4 q=30.0 size=     512KiB time=00:00:01.83 bitrate=2288.0kbits/s speed=0.0121x elapsed=0:02:31.65    \nframe=   57 fps=0.4 q=30.0 size=     512KiB time=00:00:01.83 bitrate=2288.0kbits/s speed=0.012x elapsed=0:02:32.18    \nframe=   58 fps=0.4 q=31.9 size=     512KiB time=00:00:01.86 bitrate=2247.1kbits/s speed=0.0122x elapsed=0:02:32.70    \nframe=   58 fps=0.4 q=31.9 size=     512KiB time=00:00:01.86 bitrate=2247.1kbits/s speed=0.0122x elapsed=0:02:33.21    \nframe=   58 fps=0.4 q=31.9 size=     512KiB time=00:00:01.86 bitrate=2247.1kbits/s speed=0.0121x elapsed=0:02:33.74    \nframe=   59 fps=0.4 q=34.1 size=     512KiB time=00:00:01.90 bitrate=2207.7kbits/s speed=0.0123x elapsed=0:02:34.26    \nframe=   59 fps=0.4 q=34.1 size=     512KiB time=00:00:01.90 bitrate=2207.7kbits/s speed=0.0123x elapsed=0:02:34.78    \nframe=   60 fps=0.4 q=34.1 size=     512KiB time=00:00:01.93 bitrate=2169.7kbits/s speed=0.0124x elapsed=0:02:35.30    \nframe=   60 fps=0.4 q=34.1 size=     512KiB time=00:00:01.93 bitrate=2169.7kbits/s speed=0.0124x elapsed=0:02:35.82    \nframe=   60 fps=0.4 q=34.1 size=     512KiB time=00:00:01.93 bitrate=2169.7kbits/s speed=0.0124x elapsed=0:02:36.35    \nframe=   61 fps=0.4 q=34.4 size=     512KiB time=00:00:01.96 bitrate=2132.9kbits/s speed=0.0125x elapsed=0:02:36.88    \nframe=   61 fps=0.4 q=34.4 size=     512KiB time=00:00:01.96 bitrate=2132.9kbits/s speed=0.0125x elapsed=0:02:37.41    \nframe=   61 fps=0.4 q=34.4 size=     512KiB time=00:00:01.96 bitrate=2132.9kbits/s speed=0.0125x elapsed=0:02:37.95    \nframe=   61 fps=0.4 q=34.4 size=     512KiB time=00:00:01.96 bitrate=2132.9kbits/s speed=0.0124x elapsed=0:02:38.46    \nframe=   62 fps=0.4 q=30.1 size=     512KiB time=00:00:02.00 bitrate=2097.3kbits/s speed=0.0126x elapsed=0:02:38.98    \nframe=   62 fps=0.4 q=30.1 size=     512KiB time=00:00:02.00 bitrate=2097.3kbits/s speed=0.0125x elapsed=0:02:39.50    \nframe=   62 fps=0.4 q=30.1 size=     512KiB time=00:00:02.00 bitrate=2097.3kbits/s speed=0.0125x elapsed=0:02:40.02    \nframe=   62 fps=0.4 q=30.1 size=     512KiB time=00:00:02.00 bitrate=2097.3kbits/s speed=0.0125x elapsed=0:02:40.55    \nframe=   62 fps=0.4 q=30.1 size=     512KiB time=00:00:02.00 bitrate=2097.3kbits/s speed=0.0124x elapsed=0:02:41.05    \nframe=   63 fps=0.4 q=32.1 size=     512KiB time=00:00:02.03 bitrate=2062.9kbits/s speed=0.0126x elapsed=0:02:41.57    \nframe=   64 fps=0.4 q=34.9 size=     512KiB time=00:00:02.06 bitrate=2029.7kbits/s speed=0.0127x elapsed=0:02:42.09    \nframe=   65 fps=0.4 q=35.4 size=     512KiB time=00:00:02.10 bitrate=1997.5kbits/s speed=0.0129x elapsed=0:02:42.60    \nframe=   65 fps=0.4 q=35.4 size=     512KiB time=00:00:02.10 bitrate=1997.5kbits/s speed=0.0129x elapsed=0:02:43.12    \nframe=   66 fps=0.4 q=35.6 size=     512KiB time=00:00:02.13 bitrate=1966.2kbits/s speed=0.013x elapsed=0:02:43.66    \nframe=   66 fps=0.4 q=35.6 size=     512KiB time=00:00:02.13 bitrate=1966.2kbits/s speed=0.013x elapsed=0:02:44.21    \nframe=   66 fps=0.4 q=35.6 size=     512KiB time=00:00:02.13 bitrate=1966.2kbits/s speed=0.013x elapsed=0:02:44.73    \nframe=   66 fps=0.4 q=35.6 size=     512KiB time=00:00:02.13 bitrate=1966.2kbits/s speed=0.0129x elapsed=0:02:45.25    \nframe=   67 fps=0.4 q=30.3 size=     512KiB time=00:00:02.16 bitrate=1936.0kbits/s speed=0.0131x elapsed=0:02:45.76    \nframe=   67 fps=0.4 q=30.3 size=     512KiB time=00:00:02.16 bitrate=1936.0kbits/s speed=0.013x elapsed=0:02:46.28    \nframe=   67 fps=0.4 q=30.3 size=     512KiB time=00:00:02.16 bitrate=1936.0kbits/s speed=0.013x elapsed=0:02:46.80    \nframe=   68 fps=0.4 q=33.5 size=     512KiB time=00:00:02.20 bitrate=1906.7kbits/s speed=0.0131x elapsed=0:02:47.32    \nframe=   68 fps=0.4 q=33.5 size=     512KiB time=00:00:02.20 bitrate=1906.7kbits/s speed=0.0131x elapsed=0:02:47.85    \nframe=   68 fps=0.4 q=33.5 size=     512KiB time=00:00:02.20 bitrate=1906.7kbits/s speed=0.0131x elapsed=0:02:48.42    \nframe=   68 fps=0.4 q=33.5 size=     512KiB time=00:00:02.20 bitrate=1906.7kbits/s speed=0.013x elapsed=0:02:49.03    \nframe=   68 fps=0.4 q=33.5 size=     512KiB time=00:00:02.20 bitrate=1906.7kbits/s speed=0.013x elapsed=0:02:49.64    \nframe=   68 fps=0.4 q=33.5 size=     512KiB time=00:00:02.20 bitrate=1906.7kbits/s speed=0.0129x elapsed=0:02:50.26    \nframe=   68 fps=0.4 q=33.5 size=     512KiB time=00:00:02.20 bitrate=1906.7kbits/s speed=0.0129x elapsed=0:02:50.84    \nframe=   68 fps=0.4 q=33.5 size=     512KiB time=00:00:02.20 bitrate=1906.7kbits/s speed=0.0128x elapsed=0:02:51.43    \nframe=   68 fps=0.4 q=33.5 size=     512KiB time=00:00:02.20 bitrate=1906.7kbits/s speed=0.0128x elapsed=0:02:51.98    \nframe=   68 fps=0.4 q=33.5 size=     512KiB time=00:00:02.20 bitrate=1906.7kbits/s speed=0.0127x elapsed=0:02:52.56    \nframe=   69 fps=0.4 q=35.1 size=     512KiB time=00:00:02.23 bitrate=1878.2kbits/s speed=0.0129x elapsed=0:02:53.17    \nframe=   69 fps=0.4 q=35.1 size=     512KiB time=00:00:02.23 bitrate=1878.2kbits/s speed=0.0129x elapsed=0:02:53.75    \nframe=   69 fps=0.4 q=35.1 size=     512KiB time=00:00:02.23 bitrate=1878.2kbits/s speed=0.0128x elapsed=0:02:54.31    \nframe=   69 fps=0.4 q=35.1 size=     512KiB time=00:00:02.23 bitrate=1878.2kbits/s speed=0.0128x elapsed=0:02:54.92    \nframe=   69 fps=0.4 q=35.1 size=     512KiB time=00:00:02.23 bitrate=1878.2kbits/s speed=0.0127x elapsed=0:02:55.44    \nframe=   70 fps=0.4 q=35.0 size=     512KiB time=00:00:02.26 bitrate=1850.6kbits/s speed=0.0129x elapsed=0:02:55.98    \nframe=   71 fps=0.4 q=35.1 size=     512KiB time=00:00:02.30 bitrate=1823.8kbits/s speed=0.013x elapsed=0:02:56.51    \nframe=   71 fps=0.4 q=35.1 size=     512KiB time=00:00:02.30 bitrate=1823.8kbits/s speed=0.013x elapsed=0:02:57.03    \nframe=   71 fps=0.4 q=35.1 size=     512KiB time=00:00:02.30 bitrate=1823.8kbits/s speed=0.013x elapsed=0:02:57.60    \nframe=   71 fps=0.4 q=35.1 size=     512KiB time=00:00:02.30 bitrate=1823.8kbits/s speed=0.0129x elapsed=0:02:58.15    \nframe=   71 fps=0.4 q=35.1 size=     512KiB time=00:00:02.30 bitrate=1823.8kbits/s speed=0.0129x elapsed=0:02:58.67    \nframe=   72 fps=0.4 q=30.5 size=     512KiB time=00:00:02.33 bitrate=1797.7kbits/s speed=0.013x elapsed=0:02:59.19    \nframe=   72 fps=0.4 q=30.5 size=     512KiB time=00:00:02.33 bitrate=1797.7kbits/s speed=0.013x elapsed=0:02:59.73    \nframe=   72 fps=0.4 q=30.5 size=     512KiB time=00:00:02.33 bitrate=1797.7kbits/s speed=0.0129x elapsed=0:03:00.25    \nframe=   72 fps=0.4 q=30.5 size=     512KiB time=00:00:02.33 bitrate=1797.7kbits/s speed=0.0129x elapsed=0:03:00.76    \nframe=   73 fps=0.4 q=33.5 size=     768KiB time=00:00:02.36 bitrate=2658.5kbits/s speed=0.0131x elapsed=0:03:01.29    \nframe=   73 fps=0.4 q=33.5 size=     768KiB time=00:00:02.36 bitrate=2658.5kbits/s speed=0.013x elapsed=0:03:01.81    \nframe=   73 fps=0.4 q=33.5 size=     768KiB time=00:00:02.36 bitrate=2658.5kbits/s speed=0.013x elapsed=0:03:02.33    \nframe=   74 fps=0.4 q=35.3 size=     768KiB time=00:00:02.40 bitrate=2621.6kbits/s speed=0.0131x elapsed=0:03:02.89    \nframe=   75 fps=0.4 q=35.3 size=     768KiB time=00:00:02.43 bitrate=2585.7kbits/s speed=0.0133x elapsed=0:03:03.40    \nframe=   76 fps=0.4 q=35.8 size=     768KiB time=00:00:02.46 bitrate=2550.7kbits/s speed=0.0134x elapsed=0:03:03.93    \nframe=   76 fps=0.4 q=35.8 size=     768KiB time=00:00:02.46 bitrate=2550.7kbits/s speed=0.0134x elapsed=0:03:04.45    \nframe=   76 fps=0.4 q=35.8 size=     768KiB time=00:00:02.46 bitrate=2550.7kbits/s speed=0.0133x elapsed=0:03:04.96    \nframe=   77 fps=0.4 q=30.4 size=     768KiB time=00:00:02.50 bitrate=2516.7kbits/s speed=0.0135x elapsed=0:03:05.49    \nframe=   77 fps=0.4 q=30.4 size=     768KiB time=00:00:02.50 bitrate=2516.7kbits/s speed=0.0134x elapsed=0:03:06.08    \nframe=   77 fps=0.4 q=30.4 size=     768KiB time=00:00:02.50 bitrate=2516.7kbits/s speed=0.0134x elapsed=0:03:06.63    \nframe=   78 fps=0.4 q=33.2 size=     768KiB time=00:00:02.53 bitrate=2483.6kbits/s speed=0.0135x elapsed=0:03:07.15    \nframe=   78 fps=0.4 q=33.2 size=     768KiB time=00:00:02.53 bitrate=2483.6kbits/s speed=0.0135x elapsed=0:03:07.67    \nframe=   78 fps=0.4 q=33.2 size=     768KiB time=00:00:02.53 bitrate=2483.6kbits/s speed=0.0135x elapsed=0:03:08.20    \nframe=   78 fps=0.4 q=33.2 size=     768KiB time=00:00:02.53 bitrate=2483.6kbits/s speed=0.0134x elapsed=0:03:08.73    \nframe=   79 fps=0.4 q=35.6 size=     768KiB time=00:00:02.56 bitrate=2451.4kbits/s speed=0.0136x elapsed=0:03:09.25    \nframe=   80 fps=0.4 q=35.7 size=     768KiB time=00:00:02.60 bitrate=2419.9kbits/s speed=0.0137x elapsed=0:03:09.80    \nframe=   80 fps=0.4 q=35.7 size=     768KiB time=00:00:02.60 bitrate=2419.9kbits/s speed=0.0137x elapsed=0:03:10.34    \nframe=   80 fps=0.4 q=35.7 size=     768KiB time=00:00:02.60 bitrate=2419.9kbits/s speed=0.0136x elapsed=0:03:10.85    \nframe=   81 fps=0.4 q=30.6 size=     768KiB time=00:00:02.63 bitrate=2389.3kbits/s speed=0.0138x elapsed=0:03:11.37    \nframe=   81 fps=0.4 q=30.6 size=     768KiB time=00:00:02.63 bitrate=2389.3kbits/s speed=0.0137x elapsed=0:03:11.90    \nframe=   81 fps=0.4 q=30.6 size=     768KiB time=00:00:02.63 bitrate=2389.3kbits/s speed=0.0137x elapsed=0:03:12.44    \nframe=   81 fps=0.4 q=30.6 size=     768KiB time=00:00:02.63 bitrate=2389.3kbits/s speed=0.0136x elapsed=0:03:12.97    \nframe=   81 fps=0.4 q=30.6 size=     768KiB time=00:00:02.63 bitrate=2389.3kbits/s speed=0.0136x elapsed=0:03:13.52    \nframe=   81 fps=0.4 q=30.6 size=     768KiB time=00:00:02.63 bitrate=2389.3kbits/s speed=0.0136x elapsed=0:03:14.05    \nframe=   82 fps=0.4 q=32.5 size=     768KiB time=00:00:02.66 bitrate=2359.4kbits/s speed=0.0137x elapsed=0:03:14.57    \nframe=   82 fps=0.4 q=32.5 size=     768KiB time=00:00:02.66 bitrate=2359.4kbits/s speed=0.0137x elapsed=0:03:15.10    \nframe=   83 fps=0.4 q=35.1 size=     768KiB time=00:00:02.70 bitrate=2330.3kbits/s speed=0.0138x elapsed=0:03:15.65    \nframe=   83 fps=0.4 q=35.1 size=     768KiB time=00:00:02.70 bitrate=2330.3kbits/s speed=0.0138x elapsed=0:03:16.18    \nframe=   83 fps=0.4 q=35.1 size=     768KiB time=00:00:02.70 bitrate=2330.3kbits/s speed=0.0137x elapsed=0:03:16.72    \nframe=   83 fps=0.4 q=35.1 size=     768KiB time=00:00:02.70 bitrate=2330.3kbits/s speed=0.0137x elapsed=0:03:17.28    \nframe=   84 fps=0.4 q=35.3 size=     768KiB time=00:00:02.73 bitrate=2301.9kbits/s speed=0.0138x elapsed=0:03:17.81    \nframe=   84 fps=0.4 q=35.3 size=     768KiB time=00:00:02.73 bitrate=2301.9kbits/s speed=0.0138x elapsed=0:03:18.34    \nframe=   84 fps=0.4 q=35.3 size=     768KiB time=00:00:02.73 bitrate=2301.9kbits/s speed=0.0137x elapsed=0:03:18.87    \nframe=   84 fps=0.4 q=35.3 size=     768KiB time=00:00:02.73 bitrate=2301.9kbits/s speed=0.0137x elapsed=0:03:19.39    \nframe=   84 fps=0.4 q=35.3 size=     768KiB time=00:00:02.73 bitrate=2301.9kbits/s speed=0.0137x elapsed=0:03:19.90    \nframe=   85 fps=0.4 q=35.5 size=     768KiB time=00:00:02.76 bitrate=2274.1kbits/s speed=0.0138x elapsed=0:03:20.42    \nframe=   86 fps=0.4 q=30.4 size=     768KiB time=00:00:02.80 bitrate=2247.1kbits/s speed=0.0139x elapsed=0:03:20.97    \nframe=   86 fps=0.4 q=30.4 size=     768KiB time=00:00:02.80 bitrate=2247.1kbits/s speed=0.0139x elapsed=0:03:21.47    \nframe=   86 fps=0.4 q=30.4 size=     768KiB time=00:00:02.80 bitrate=2247.1kbits/s speed=0.0139x elapsed=0:03:22.00    \nframe=   86 fps=0.4 q=30.4 size=     768KiB time=00:00:02.80 bitrate=2247.1kbits/s speed=0.0138x elapsed=0:03:22.54    \nframe=   87 fps=0.4 q=33.2 size=     768KiB time=00:00:02.83 bitrate=2220.6kbits/s speed=0.014x elapsed=0:03:23.09    \nframe=   87 fps=0.4 q=33.2 size=     768KiB time=00:00:02.83 bitrate=2220.6kbits/s speed=0.0139x elapsed=0:03:23.64    \nframe=   87 fps=0.4 q=33.2 size=     768KiB time=00:00:02.83 bitrate=2220.6kbits/s speed=0.0139x elapsed=0:03:24.18    \nframe=   87 fps=0.4 q=33.2 size=     768KiB time=00:00:02.83 bitrate=2220.6kbits/s speed=0.0138x elapsed=0:03:24.70    \nframe=   87 fps=0.4 q=33.2 size=     768KiB time=00:00:02.83 bitrate=2220.6kbits/s speed=0.0138x elapsed=0:03:25.24    \nframe=   88 fps=0.4 q=35.4 size=     768KiB time=00:00:02.86 bitrate=2194.8kbits/s speed=0.0139x elapsed=0:03:25.76    \nframe=   88 fps=0.4 q=35.4 size=     768KiB time=00:00:02.86 bitrate=2194.8kbits/s speed=0.0139x elapsed=0:03:26.29    \nframe=   89 fps=0.4 q=35.5 size=     768KiB time=00:00:02.90 bitrate=2169.6kbits/s speed=0.014x elapsed=0:03:26.83    \nframe=   89 fps=0.4 q=35.5 size=     768KiB time=00:00:02.90 bitrate=2169.6kbits/s speed=0.014x elapsed=0:03:27.37    \nframe=   89 fps=0.4 q=35.5 size=     768KiB time=00:00:02.90 bitrate=2169.6kbits/s speed=0.0139x elapsed=0:03:27.91    \nframe=   90 fps=0.4 q=30.6 size=     768KiB time=00:00:02.93 bitrate=2144.9kbits/s speed=0.0141x elapsed=0:03:28.43    \nframe=   90 fps=0.4 q=30.6 size=     768KiB time=00:00:02.93 bitrate=2144.9kbits/s speed=0.014x elapsed=0:03:28.95    \nframe=   90 fps=0.4 q=30.6 size=     768KiB time=00:00:02.93 bitrate=2144.9kbits/s speed=0.014x elapsed=0:03:29.47    \nframe=   90 fps=0.4 q=30.6 size=     768KiB time=00:00:02.93 bitrate=2144.9kbits/s speed=0.014x elapsed=0:03:29.99    \nframe=   90 fps=0.4 q=30.6 size=     768KiB time=00:00:02.93 bitrate=2144.9kbits/s speed=0.0139x elapsed=0:03:30.51    \nframe=   90 fps=0.4 q=30.6 size=     768KiB time=00:00:02.93 bitrate=2144.9kbits/s speed=0.0139x elapsed=0:03:31.05    \nframe=   91 fps=0.4 q=32.7 size=     768KiB time=00:00:02.96 bitrate=2120.8kbits/s speed=0.014x elapsed=0:03:31.55    \nframe=   91 fps=0.4 q=32.7 size=     768KiB time=00:00:02.96 bitrate=2120.8kbits/s speed=0.014x elapsed=0:03:32.08    \nframe=   91 fps=0.4 q=32.7 size=     768KiB time=00:00:02.96 bitrate=2120.8kbits/s speed=0.014x elapsed=0:03:32.61    \nframe=   92 fps=0.4 q=35.1 size=     768KiB time=00:00:03.00 bitrate=2097.3kbits/s speed=0.0141x elapsed=0:03:33.12    \nframe=   92 fps=0.4 q=35.1 size=     768KiB time=00:00:03.00 bitrate=2097.3kbits/s speed=0.014x elapsed=0:03:33.64    \nframe=   93 fps=0.4 q=35.2 size=     768KiB time=00:00:03.03 bitrate=2074.2kbits/s speed=0.0142x elapsed=0:03:34.16    \nframe=   93 fps=0.4 q=35.2 size=     768KiB time=00:00:03.03 bitrate=2074.2kbits/s speed=0.0141x elapsed=0:03:34.68    \nframe=   93 fps=0.4 q=35.2 size=     768KiB time=00:00:03.03 bitrate=2074.2kbits/s speed=0.0141x elapsed=0:03:35.22    \nframe=   93 fps=0.4 q=35.2 size=     768KiB time=00:00:03.03 bitrate=2074.2kbits/s speed=0.0141x elapsed=0:03:35.75    \nframe=   94 fps=0.4 q=35.2 size=     768KiB time=00:00:03.06 bitrate=2051.7kbits/s speed=0.0142x elapsed=0:03:36.26    \nframe=   94 fps=0.4 q=35.2 size=     768KiB time=00:00:03.06 bitrate=2051.7kbits/s speed=0.0141x elapsed=0:03:36.79    \nframe=   95 fps=0.4 q=30.8 size=     768KiB time=00:00:03.10 bitrate=2029.6kbits/s speed=0.0143x elapsed=0:03:37.32    \nframe=   96 fps=0.4 q=32.6 size=     768KiB time=00:00:03.13 bitrate=2008.0kbits/s speed=0.0144x elapsed=0:03:37.84    \nframe=   96 fps=0.4 q=32.6 size=     768KiB time=00:00:03.13 bitrate=2008.0kbits/s speed=0.0143x elapsed=0:03:38.35    \nframe=   96 fps=0.4 q=32.6 size=     768KiB time=00:00:03.13 bitrate=2008.0kbits/s speed=0.0143x elapsed=0:03:38.88    \nframe=   97 fps=0.4 q=34.9 size=     768KiB time=00:00:03.16 bitrate=1986.9kbits/s speed=0.0144x elapsed=0:03:39.44    \nframe=   97 fps=0.4 q=34.9 size=     768KiB time=00:00:03.16 bitrate=1986.9kbits/s speed=0.0144x elapsed=0:03:40.02    \nframe=   97 fps=0.4 q=34.9 size=     768KiB time=00:00:03.16 bitrate=1986.9kbits/s speed=0.0144x elapsed=0:03:40.57    \nframe=   97 fps=0.4 q=34.9 size=     768KiB time=00:00:03.16 bitrate=1986.9kbits/s speed=0.0143x elapsed=0:03:41.12    \nframe=   98 fps=0.4 q=35.0 size=     768KiB time=00:00:03.20 bitrate=1966.2kbits/s speed=0.0144x elapsed=0:03:41.63    \nframe=   99 fps=0.4 q=35.1 size=    1024KiB time=00:00:03.23 bitrate=2594.5kbits/s speed=0.0146x elapsed=0:03:42.17    \nframe=   99 fps=0.4 q=35.1 size=    1024KiB time=00:00:03.23 bitrate=2594.5kbits/s speed=0.0145x elapsed=0:03:42.71    \nframe=   99 fps=0.4 q=35.1 size=    1024KiB time=00:00:03.23 bitrate=2594.5kbits/s speed=0.0145x elapsed=0:03:43.22    \nframe=   99 fps=0.4 q=35.1 size=    1024KiB time=00:00:03.23 bitrate=2594.5kbits/s speed=0.0144x elapsed=0:03:43.78    \nframe=   99 fps=0.4 q=35.1 size=    1024KiB time=00:00:03.23 bitrate=2594.5kbits/s speed=0.0144x elapsed=0:03:44.33    \nframe=   99 fps=0.4 q=35.1 size=    1024KiB time=00:00:03.23 bitrate=2594.5kbits/s speed=0.0144x elapsed=0:03:44.87    \nframe=  100 fps=0.4 q=30.9 size=    1024KiB time=00:00:03.26 bitrate=2568.0kbits/s speed=0.0145x elapsed=0:03:45.39    \nframe=  100 fps=0.4 q=30.9 size=    1024KiB time=00:00:03.26 bitrate=2568.0kbits/s speed=0.0145x elapsed=0:03:45.92    \nframe=  100 fps=0.4 q=30.9 size=    1024KiB time=00:00:03.26 bitrate=2568.0kbits/s speed=0.0144x elapsed=0:03:46.49    \nframe=  100 fps=0.4 q=30.9 size=    1024KiB time=00:00:03.26 bitrate=2568.0kbits/s speed=0.0144x elapsed=0:03:47.04    \nframe=  100 fps=0.4 q=30.9 size=    1024KiB time=00:00:03.26 bitrate=2568.0kbits/s speed=0.0144x elapsed=0:03:47.56    \nframe=  100 fps=0.4 q=30.9 size=    1024KiB time=00:00:03.26 bitrate=2568.0kbits/s speed=0.0143x elapsed=0:03:48.08    \nframe=  101 fps=0.4 q=33.5 size=    1024KiB time=00:00:03.30 bitrate=2542.1kbits/s speed=0.0144x elapsed=0:03:48.60    \nframe=  101 fps=0.4 q=33.5 size=    1024KiB time=00:00:03.30 bitrate=2542.1kbits/s speed=0.0144x elapsed=0:03:49.15    \nframe=  101 fps=0.4 q=33.5 size=    1024KiB time=00:00:03.30 bitrate=2542.1kbits/s speed=0.0144x elapsed=0:03:49.67    \nframe=  101 fps=0.4 q=33.5 size=    1024KiB time=00:00:03.30 bitrate=2542.1kbits/s speed=0.0143x elapsed=0:03:50.19    \nframe=  101 fps=0.4 q=33.5 size=    1024KiB time=00:00:03.30 bitrate=2542.1kbits/s speed=0.0143x elapsed=0:03:50.71    \nframe=  101 fps=0.4 q=33.5 size=    1024KiB time=00:00:03.30 bitrate=2542.1kbits/s speed=0.0143x elapsed=0:03:51.25    \nframe=  101 fps=0.4 q=33.5 size=    1024KiB time=00:00:03.30 bitrate=2542.1kbits/s speed=0.0142x elapsed=0:03:51.78    \nframe=  101 fps=0.4 q=33.5 size=    1024KiB time=00:00:03.30 bitrate=2542.1kbits/s speed=0.0142x elapsed=0:03:52.30    \nframe=  102 fps=0.4 q=35.4 size=    1024KiB time=00:00:03.33 bitrate=2516.7kbits/s speed=0.0143x elapsed=0:03:52.84    \nframe=  103 fps=0.4 q=35.2 size=    1024KiB time=00:00:03.36 bitrate=2491.8kbits/s speed=0.0144x elapsed=0:03:53.36    \nframe=  103 fps=0.4 q=35.2 size=    1024KiB time=00:00:03.36 bitrate=2491.8kbits/s speed=0.0144x elapsed=0:03:53.90    \nframe=  103 fps=0.4 q=35.2 size=    1024KiB time=00:00:03.36 bitrate=2491.8kbits/s speed=0.0144x elapsed=0:03:54.45    \nframe=  103 fps=0.4 q=35.2 size=    1024KiB time=00:00:03.36 bitrate=2491.8kbits/s speed=0.0143x elapsed=0:03:55.00    \nframe=  103 fps=0.4 q=35.2 size=    1024KiB time=00:00:03.36 bitrate=2491.8kbits/s speed=0.0143x elapsed=0:03:55.53    \nframe=  103 fps=0.4 q=35.2 size=    1024KiB time=00:00:03.36 bitrate=2491.8kbits/s speed=0.0143x elapsed=0:03:56.05    \nframe=  104 fps=0.4 q=30.8 size=    1024KiB time=00:00:03.40 bitrate=2467.3kbits/s speed=0.0144x elapsed=0:03:56.59    \nframe=  104 fps=0.4 q=30.8 size=    1024KiB time=00:00:03.40 bitrate=2467.3kbits/s speed=0.0143x elapsed=0:03:57.12    \nframe=  105 fps=0.4 q=32.8 size=    1024KiB time=00:00:03.43 bitrate=2443.4kbits/s speed=0.0144x elapsed=0:03:57.66    \nframe=  105 fps=0.4 q=32.8 size=    1024KiB time=00:00:03.43 bitrate=2443.4kbits/s speed=0.0144x elapsed=0:03:58.18    \nframe=  105 fps=0.4 q=32.8 size=    1024KiB time=00:00:03.43 bitrate=2443.4kbits/s speed=0.0144x elapsed=0:03:58.72    \nframe=  106 fps=0.4 q=34.9 size=    1024KiB time=00:00:03.46 bitrate=2419.9kbits/s speed=0.0145x elapsed=0:03:59.24    \nframe=  106 fps=0.4 q=34.9 size=    1024KiB time=00:00:03.46 bitrate=2419.9kbits/s speed=0.0145x elapsed=0:03:59.76    \nframe=  107 fps=0.4 q=35.0 size=    1024KiB time=00:00:03.46 bitrate=2419.9kbits/s speed=0.0144x elapsed=0:04:00.27    \nframe=  107 fps=0.4 q=35.0 size=    1024KiB time=00:00:03.50 bitrate=2396.8kbits/s speed=0.0145x elapsed=0:04:00.83    \nframe=  107 fps=0.4 q=35.0 size=    1024KiB time=00:00:03.50 bitrate=2396.8kbits/s speed=0.0145x elapsed=0:04:01.46    \nframe=  107 fps=0.4 q=35.0 size=    1024KiB time=00:00:03.50 bitrate=2396.8kbits/s speed=0.0145x elapsed=0:04:02.05    \nframe=  107 fps=0.4 q=35.0 size=    1024KiB time=00:00:03.50 bitrate=2396.8kbits/s speed=0.0144x elapsed=0:04:02.60    \nframe=  107 fps=0.4 q=35.0 size=    1024KiB time=00:00:03.50 bitrate=2396.8kbits/s speed=0.0144x elapsed=0:04:03.17    \nframe=  107 fps=0.4 q=35.0 size=    1024KiB time=00:00:03.50 bitrate=2396.8kbits/s speed=0.0144x elapsed=0:04:03.76    \nframe=  107 fps=0.4 q=35.0 size=    1024KiB time=00:00:03.50 bitrate=2396.8kbits/s speed=0.0143x elapsed=0:04:04.34    \nframe=  107 fps=0.4 q=35.0 size=    1024KiB time=00:00:03.50 bitrate=2396.8kbits/s speed=0.0143x elapsed=0:04:04.99    \nframe=  108 fps=0.4 q=30.7 size=    1024KiB time=00:00:03.53 bitrate=2374.2kbits/s speed=0.0144x elapsed=0:04:05.62    \nframe=  108 fps=0.4 q=30.7 size=    1024KiB time=00:00:03.53 bitrate=2374.2kbits/s speed=0.0144x elapsed=0:04:06.14    \nframe=  109 fps=0.4 q=32.8 size=    1024KiB time=00:00:03.56 bitrate=2352.0kbits/s speed=0.0145x elapsed=0:04:06.65    \nframe=  109 fps=0.4 q=32.8 size=    1024KiB time=00:00:03.56 bitrate=2352.0kbits/s speed=0.0144x elapsed=0:04:07.19    \nframe=  109 fps=0.4 q=32.8 size=    1024KiB time=00:00:03.56 bitrate=2352.0kbits/s speed=0.0144x elapsed=0:04:07.77    \nframe=  109 fps=0.4 q=32.8 size=    1024KiB time=00:00:03.56 bitrate=2352.0kbits/s speed=0.0144x elapsed=0:04:08.28    \nframe=  109 fps=0.4 q=32.8 size=    1024KiB time=00:00:03.56 bitrate=2352.0kbits/s speed=0.0143x elapsed=0:04:08.81    \nframe=  109 fps=0.4 q=32.8 size=    1024KiB time=00:00:03.56 bitrate=2352.0kbits/s speed=0.0143x elapsed=0:04:09.35    \nframe=  110 fps=0.4 q=35.0 size=    1024KiB time=00:00:03.60 bitrate=2330.3kbits/s speed=0.0144x elapsed=0:04:09.87    \nframe=  110 fps=0.4 q=35.0 size=    1024KiB time=00:00:03.60 bitrate=2330.3kbits/s speed=0.0144x elapsed=0:04:10.40    \nframe=  110 fps=0.4 q=35.0 size=    1024KiB time=00:00:03.60 bitrate=2330.3kbits/s speed=0.0143x elapsed=0:04:10.93    \nframe=  111 fps=0.4 q=35.1 size=    1024KiB time=00:00:03.63 bitrate=2308.9kbits/s speed=0.0144x elapsed=0:04:11.47    \nframe=  111 fps=0.4 q=35.1 size=    1024KiB time=00:00:03.63 bitrate=2308.9kbits/s speed=0.0144x elapsed=0:04:12.00    \nframe=  112 fps=0.4 q=30.8 size=    1024KiB time=00:00:03.66 bitrate=2287.9kbits/s speed=0.0145x elapsed=0:04:12.52    \nframe=  113 fps=0.4 q=32.8 size=    1024KiB time=00:00:03.70 bitrate=2267.3kbits/s speed=0.0146x elapsed=0:04:13.04    \nframe=  113 fps=0.4 q=32.8 size=    1024KiB time=00:00:03.70 bitrate=2267.3kbits/s speed=0.0146x elapsed=0:04:13.59    \nframe=  113 fps=0.4 q=32.8 size=    1024KiB time=00:00:03.70 bitrate=2267.3kbits/s speed=0.0146x elapsed=0:04:14.11    \nframe=  113 fps=0.4 q=32.8 size=    1024KiB time=00:00:03.70 bitrate=2267.3kbits/s speed=0.0145x elapsed=0:04:14.64    \nframe=  113 fps=0.4 q=32.8 size=    1024KiB time=00:00:03.70 bitrate=2267.3kbits/s speed=0.0145x elapsed=0:04:15.18    \nframe=  113 fps=0.4 q=32.8 size=    1024KiB time=00:00:03.70 bitrate=2267.3kbits/s speed=0.0145x elapsed=0:04:15.68    \nframe=  113 fps=0.4 q=32.8 size=    1024KiB time=00:00:03.70 bitrate=2267.3kbits/s speed=0.0144x elapsed=0:04:16.20    \nframe=  114 fps=0.4 q=35.2 size=    1024KiB time=00:00:03.73 bitrate=2247.0kbits/s speed=0.0145x elapsed=0:04:16.72    \nframe=  114 fps=0.4 q=35.2 size=    1024KiB time=00:00:03.73 bitrate=2247.0kbits/s speed=0.0145x elapsed=0:04:17.26    \nframe=  115 fps=0.4 q=35.4 size=    1024KiB time=00:00:03.76 bitrate=2227.2kbits/s speed=0.0146x elapsed=0:04:17.78    \nframe=  115 fps=0.4 q=35.4 size=    1024KiB time=00:00:03.76 bitrate=2227.2kbits/s speed=0.0146x elapsed=0:04:18.30    \nframe=  115 fps=0.4 q=35.4 size=    1024KiB time=00:00:03.76 bitrate=2227.2kbits/s speed=0.0146x elapsed=0:04:18.81    \nframe=  116 fps=0.4 q=30.7 size=    1024KiB time=00:00:03.80 bitrate=2207.6kbits/s speed=0.0147x elapsed=0:04:19.34    \nframe=  116 fps=0.4 q=30.7 size=    1024KiB time=00:00:03.80 bitrate=2207.6kbits/s speed=0.0146x elapsed=0:04:19.88    \nframe=  116 fps=0.4 q=30.7 size=    1024KiB time=00:00:03.80 bitrate=2207.6kbits/s speed=0.0146x elapsed=0:04:20.40    \nframe=  116 fps=0.4 q=30.7 size=    1024KiB time=00:00:03.80 bitrate=2207.6kbits/s speed=0.0146x elapsed=0:04:20.91    \nframe=  116 fps=0.4 q=30.7 size=    1024KiB time=00:00:03.80 bitrate=2207.6kbits/s speed=0.0145x elapsed=0:04:21.45    \nframe=  116 fps=0.4 q=30.7 size=    1024KiB time=00:00:03.80 bitrate=2207.6kbits/s speed=0.0145x elapsed=0:04:21.97    \nframe=  116 fps=0.4 q=30.7 size=    1024KiB time=00:00:03.80 bitrate=2207.6kbits/s speed=0.0145x elapsed=0:04:22.49    \nframe=  117 fps=0.4 q=32.9 size=    1024KiB time=00:00:03.83 bitrate=2188.4kbits/s speed=0.0146x elapsed=0:04:23.04    \nframe=  117 fps=0.4 q=32.9 size=    1024KiB time=00:00:03.83 bitrate=2188.4kbits/s speed=0.0145x elapsed=0:04:23.57    \nframe=  117 fps=0.4 q=32.9 size=    1024KiB time=00:00:03.83 bitrate=2188.4kbits/s speed=0.0145x elapsed=0:04:24.11    \nframe=  117 fps=0.4 q=32.9 size=    1024KiB time=00:00:03.83 bitrate=2188.4kbits/s speed=0.0145x elapsed=0:04:24.62    \nframe=  118 fps=0.4 q=35.1 size=    1024KiB time=00:00:03.86 bitrate=2169.6kbits/s speed=0.0146x elapsed=0:04:25.14    \nframe=  118 fps=0.4 q=35.1 size=    1024KiB time=00:00:03.86 bitrate=2169.6kbits/s speed=0.0146x elapsed=0:04:25.68    \nframe=  118 fps=0.4 q=35.1 size=    1024KiB time=00:00:03.86 bitrate=2169.6kbits/s speed=0.0145x elapsed=0:04:26.22    \nframe=  119 fps=0.4 q=35.3 size=    1024KiB time=00:00:03.90 bitrate=2151.0kbits/s speed=0.0146x elapsed=0:04:26.77    \nframe=  119 fps=0.4 q=35.3 size=    1024KiB time=00:00:03.90 bitrate=2151.0kbits/s speed=0.0146x elapsed=0:04:27.30    \nframe=  119 fps=0.4 q=35.3 size=    1024KiB time=00:00:03.90 bitrate=2151.0kbits/s speed=0.0146x elapsed=0:04:27.85    \nframe=  120 fps=0.4 q=30.8 size=    1024KiB time=00:00:03.93 bitrate=2132.8kbits/s speed=0.0147x elapsed=0:04:28.37    \nframe=  120 fps=0.4 q=30.8 size=    1024KiB time=00:00:03.93 bitrate=2132.8kbits/s speed=0.0146x elapsed=0:04:28.88    \nframe=  120 fps=0.4 q=30.8 size=    1024KiB time=00:00:03.93 bitrate=2132.8kbits/s speed=0.0146x elapsed=0:04:29.41    \nframe=  120 fps=0.4 q=30.8 size=    1024KiB time=00:00:03.93 bitrate=2132.8kbits/s speed=0.0146x elapsed=0:04:29.94    \nframe=  120 fps=0.4 q=30.8 size=    1024KiB time=00:00:03.93 bitrate=2132.8kbits/s speed=0.0145x elapsed=0:04:30.49    \nframe=  120 fps=0.4 q=30.8 size=    1024KiB time=00:00:03.93 bitrate=2132.8kbits/s speed=0.0145x elapsed=0:04:31.03    \nframe=  121 fps=0.4 q=33.0 size=    1024KiB time=00:00:03.96 bitrate=2114.9kbits/s speed=0.0146x elapsed=0:04:31.58    \nframe=  121 fps=0.4 q=33.0 size=    1024KiB time=00:00:03.96 bitrate=2114.9kbits/s speed=0.0146x elapsed=0:04:32.14    \nframe=  121 fps=0.4 q=33.0 size=    1024KiB time=00:00:03.96 bitrate=2114.9kbits/s speed=0.0145x elapsed=0:04:32.66    \nframe=  121 fps=0.4 q=33.0 size=    1024KiB time=00:00:03.96 bitrate=2114.9kbits/s speed=0.0145x elapsed=0:04:33.18    \nframe=  121 fps=0.4 q=33.0 size=    1024KiB time=00:00:03.96 bitrate=2114.9kbits/s speed=0.0145x elapsed=0:04:33.71    \nframe=  122 fps=0.4 q=35.3 size=    1024KiB time=00:00:04.00 bitrate=2097.2kbits/s speed=0.0146x elapsed=0:04:34.27    \nframe=  122 fps=0.4 q=35.3 size=    1024KiB time=00:00:04.00 bitrate=2097.2kbits/s speed=0.0146x elapsed=0:04:34.79    \nframe=  122 fps=0.4 q=35.3 size=    1024KiB time=00:00:04.00 bitrate=2097.2kbits/s speed=0.0145x elapsed=0:04:35.35    \nframe=  122 fps=0.4 q=35.3 size=    1024KiB time=00:00:04.00 bitrate=2097.2kbits/s speed=0.0145x elapsed=0:04:35.87    \nframe=  122 fps=0.4 q=35.3 size=    1024KiB time=00:00:04.00 bitrate=2097.2kbits/s speed=0.0145x elapsed=0:04:36.44    \nframe=  122 fps=0.4 q=35.3 size=    1024KiB time=00:00:04.00 bitrate=2097.2kbits/s speed=0.0144x elapsed=0:04:37.07    \nframe=  122 fps=0.4 q=35.3 size=    1024KiB time=00:00:04.00 bitrate=2097.2kbits/s speed=0.0144x elapsed=0:04:37.68    \nframe=  122 fps=0.4 q=35.3 size=    1024KiB time=00:00:04.00 bitrate=2097.2kbits/s speed=0.0144x elapsed=0:04:38.28    \nframe=  123 fps=0.4 q=35.3 size=    1024KiB time=00:00:04.03 bitrate=2079.9kbits/s speed=0.0145x elapsed=0:04:38.87    \nframe=  123 fps=0.4 q=35.3 size=    1024KiB time=00:00:04.03 bitrate=2079.9kbits/s speed=0.0144x elapsed=0:04:39.39    \nframe=  123 fps=0.4 q=35.3 size=    1024KiB time=00:00:04.03 bitrate=2079.9kbits/s speed=0.0144x elapsed=0:04:39.92    \nframe=  123 fps=0.4 q=35.3 size=    1024KiB time=00:00:04.03 bitrate=2079.9kbits/s speed=0.0144x elapsed=0:04:40.50    \nframe=  123 fps=0.4 q=35.3 size=    1024KiB time=00:00:04.03 bitrate=2079.9kbits/s speed=0.0143x elapsed=0:04:41.07    \nframe=  124 fps=0.4 q=30.8 size=    1280KiB time=00:00:04.06 bitrate=2578.6kbits/s speed=0.0144x elapsed=0:04:41.67    \nframe=  124 fps=0.4 q=30.8 size=    1280KiB time=00:00:04.06 bitrate=2578.6kbits/s speed=0.0144x elapsed=0:04:42.23    \nframe=  124 fps=0.4 q=30.8 size=    1280KiB time=00:00:04.06 bitrate=2578.6kbits/s speed=0.0144x elapsed=0:04:42.80    \nframe=  124 fps=0.4 q=30.8 size=    1280KiB time=00:00:04.06 bitrate=2578.6kbits/s speed=0.0144x elapsed=0:04:43.34    \nframe=  124 fps=0.4 q=30.8 size=    1280KiB time=00:00:04.06 bitrate=2578.6kbits/s speed=0.0143x elapsed=0:04:43.92    \nframe=  124 fps=0.4 q=30.8 size=    1280KiB time=00:00:04.06 bitrate=2578.6kbits/s speed=0.0143x elapsed=0:04:44.52    \nframe=  124 fps=0.4 q=30.8 size=    1280KiB time=00:00:04.06 bitrate=2578.6kbits/s speed=0.0143x elapsed=0:04:45.06    \nframe=  124 fps=0.4 q=30.8 size=    1280KiB time=00:00:04.06 bitrate=2578.6kbits/s speed=0.0142x elapsed=0:04:45.62    \nframe=  124 fps=0.4 q=30.8 size=    1280KiB time=00:00:04.06 bitrate=2578.6kbits/s speed=0.0142x elapsed=0:04:46.17    \nframe=  125 fps=0.4 q=33.1 size=    1280KiB time=00:00:04.10 bitrate=2557.6kbits/s speed=0.0143x elapsed=0:04:46.73    \nframe=  125 fps=0.4 q=33.1 size=    1280KiB time=00:00:04.10 bitrate=2557.6kbits/s speed=0.0143x elapsed=0:04:47.32    \nframe=  125 fps=0.4 q=33.1 size=    1280KiB time=00:00:04.10 bitrate=2557.6kbits/s speed=0.0142x elapsed=0:04:47.86    \nframe=  125 fps=0.4 q=33.1 size=    1280KiB time=00:00:04.10 bitrate=2557.6kbits/s speed=0.0142x elapsed=0:04:48.38    \nframe=  125 fps=0.4 q=33.1 size=    1280KiB time=00:00:04.10 bitrate=2557.6kbits/s speed=0.0142x elapsed=0:04:48.89    \nframe=  126 fps=0.4 q=35.1 size=    1280KiB time=00:00:04.13 bitrate=2537.0kbits/s speed=0.0143x elapsed=0:04:49.45    \nframe=  126 fps=0.4 q=35.1 size=    1280KiB time=00:00:04.13 bitrate=2537.0kbits/s speed=0.0143x elapsed=0:04:50.00    \nframe=  126 fps=0.4 q=35.1 size=    1280KiB time=00:00:04.13 bitrate=2537.0kbits/s speed=0.0142x elapsed=0:04:50.54    \nframe=  126 fps=0.4 q=35.1 size=    1280KiB time=00:00:04.13 bitrate=2537.0kbits/s speed=0.0142x elapsed=0:04:51.07    \nframe=  127 fps=0.4 q=35.2 size=    1280KiB time=00:00:04.16 bitrate=2516.7kbits/s speed=0.0143x elapsed=0:04:51.61    \nframe=  127 fps=0.4 q=35.2 size=    1280KiB time=00:00:04.16 bitrate=2516.7kbits/s speed=0.0143x elapsed=0:04:52.17    \nframe=  127 fps=0.4 q=35.2 size=    1280KiB time=00:00:04.16 bitrate=2516.7kbits/s speed=0.0142x elapsed=0:04:52.72    \nframe=  127 fps=0.4 q=35.2 size=    1280KiB time=00:00:04.16 bitrate=2516.7kbits/s speed=0.0142x elapsed=0:04:53.31    \nframe=  127 fps=0.4 q=35.2 size=    1280KiB time=00:00:04.16 bitrate=2516.7kbits/s speed=0.0142x elapsed=0:04:53.90    \nframe=  127 fps=0.4 q=35.2 size=    1280KiB time=00:00:04.16 bitrate=2516.7kbits/s speed=0.0142x elapsed=0:04:54.44    \nframe=  127 fps=0.4 q=35.2 size=    1280KiB time=00:00:04.16 bitrate=2516.7kbits/s speed=0.0141x elapsed=0:04:54.98    \nframe=  127 fps=0.4 q=35.2 size=    1280KiB time=00:00:04.16 bitrate=2516.7kbits/s speed=0.0141x elapsed=0:04:55.54    \nframe=  127 fps=0.4 q=35.2 size=    1280KiB time=00:00:04.16 bitrate=2516.7kbits/s speed=0.0141x elapsed=0:04:56.07    \nframe=  127 fps=0.4 q=35.2 size=    1280KiB time=00:00:04.16 bitrate=2516.7kbits/s speed=0.014x elapsed=0:04:56.67    \nframe=  127 fps=0.4 q=35.2 size=    1280KiB time=00:00:04.16 bitrate=2516.7kbits/s speed=0.014x elapsed=0:04:57.27    \nframe=  127 fps=0.4 q=35.2 size=    1280KiB time=00:00:04.16 bitrate=2516.7kbits/s speed=0.014x elapsed=0:04:57.79    \nframe=  127 fps=0.4 q=35.2 size=    1280KiB time=00:00:04.16 bitrate=2516.7kbits/s speed=0.014x elapsed=0:04:58.33    \nframe=  127 fps=0.4 q=35.2 size=    1280KiB time=00:00:04.16 bitrate=2516.7kbits/s speed=0.0139x elapsed=0:04:58.91    \nframe=  127 fps=0.4 q=35.2 size=    1280KiB time=00:00:04.16 bitrate=2516.7kbits/s speed=0.0139x elapsed=0:04:59.48    \nframe=  127 fps=0.4 q=35.2 size=    1280KiB time=00:00:04.16 bitrate=2516.7kbits/s speed=0.0139x elapsed=0:05:00.09    \nframe=  128 fps=0.4 q=31.0 size=    1280KiB time=00:00:04.20 bitrate=2496.7kbits/s speed=0.014x elapsed=0:05:00.67    \nframe=  129 fps=0.4 q=32.9 size=    1280KiB time=00:00:04.23 bitrate=2477.0kbits/s speed=0.0141x elapsed=0:05:01.30    \nframe=  129 fps=0.4 q=32.9 size=    1280KiB time=00:00:04.23 bitrate=2477.0kbits/s speed=0.014x elapsed=0:05:01.91    \nframe=  129 fps=0.4 q=32.9 size=    1280KiB time=00:00:04.23 bitrate=2477.0kbits/s speed=0.014x elapsed=0:05:02.49    \nframe=  129 fps=0.4 q=32.9 size=    1280KiB time=00:00:04.23 bitrate=2477.0kbits/s speed=0.014x elapsed=0:05:03.09    \nframe=  129 fps=0.4 q=32.9 size=    1280KiB time=00:00:04.23 bitrate=2477.0kbits/s speed=0.0139x elapsed=0:05:03.67    \nframe=  129 fps=0.4 q=32.9 size=    1280KiB time=00:00:04.23 bitrate=2477.0kbits/s speed=0.0139x elapsed=0:05:04.19    \nframe=  130 fps=0.4 q=35.0 size=    1280KiB time=00:00:04.26 bitrate=2457.7kbits/s speed=0.014x elapsed=0:05:04.71    \nframe=  130 fps=0.4 q=35.0 size=    1280KiB time=00:00:04.26 bitrate=2457.7kbits/s speed=0.014x elapsed=0:05:05.23    \nframe=  131 fps=0.4 q=35.2 size=    1280KiB time=00:00:04.30 bitrate=2438.6kbits/s speed=0.0141x elapsed=0:05:05.80    \nframe=  131 fps=0.4 q=35.2 size=    1280KiB time=00:00:04.30 bitrate=2438.6kbits/s speed=0.014x elapsed=0:05:06.41    \nframe=  131 fps=0.4 q=35.2 size=    1280KiB time=00:00:04.30 bitrate=2438.6kbits/s speed=0.014x elapsed=0:05:06.93    \nframe=  132 fps=0.4 q=31.9 size=    1280KiB time=00:00:04.33 bitrate=2419.9kbits/s speed=0.0141x elapsed=0:05:07.45    \nframe=  132 fps=0.4 q=31.9 size=    1280KiB time=00:00:04.33 bitrate=2419.9kbits/s speed=0.0141x elapsed=0:05:08.00    \nframe=  132 fps=0.4 q=31.9 size=    1280KiB time=00:00:04.33 bitrate=2419.9kbits/s speed=0.014x elapsed=0:05:08.52    \nframe=  132 fps=0.4 q=31.9 size=    1280KiB time=00:00:04.33 bitrate=2419.9kbits/s speed=0.014x elapsed=0:05:09.05    \nframe=  132 fps=0.4 q=31.9 size=    1280KiB time=00:00:04.33 bitrate=2419.9kbits/s speed=0.014x elapsed=0:05:09.63    \nframe=  132 fps=0.4 q=31.9 size=    1280KiB time=00:00:04.33 bitrate=2419.9kbits/s speed=0.014x elapsed=0:05:10.16    \nframe=  132 fps=0.4 q=31.9 size=    1280KiB time=00:00:04.33 bitrate=2419.9kbits/s speed=0.0139x elapsed=0:05:10.68    \nframe=  132 fps=0.4 q=31.9 size=    1280KiB time=00:00:04.33 bitrate=2419.9kbits/s speed=0.0139x elapsed=0:05:11.22    \nframe=  133 fps=0.4 q=32.7 size=    1280KiB time=00:00:04.36 bitrate=2401.4kbits/s speed=0.014x elapsed=0:05:11.75    \nframe=  133 fps=0.4 q=32.7 size=    1280KiB time=00:00:04.36 bitrate=2401.4kbits/s speed=0.014x elapsed=0:05:12.29    \nframe=  133 fps=0.4 q=32.7 size=    1280KiB time=00:00:04.36 bitrate=2401.4kbits/s speed=0.014x elapsed=0:05:12.80    \nframe=  134 fps=0.4 q=35.3 size=    1280KiB time=00:00:04.40 bitrate=2383.2kbits/s speed=0.014x elapsed=0:05:13.34    \nframe=  134 fps=0.4 q=35.3 size=    1280KiB time=00:00:04.40 bitrate=2383.2kbits/s speed=0.014x elapsed=0:05:13.89    \nframe=  134 fps=0.4 q=35.3 size=    1280KiB time=00:00:04.40 bitrate=2383.2kbits/s speed=0.014x elapsed=0:05:14.44    \nframe=  134 fps=0.4 q=35.3 size=    1280KiB time=00:00:04.40 bitrate=2383.2kbits/s speed=0.014x elapsed=0:05:14.97    \nframe=  135 fps=0.4 q=34.8 size=    1280KiB time=00:00:04.43 bitrate=2365.3kbits/s speed=0.0141x elapsed=0:05:15.53    \nframe=  136 fps=0.4 q=29.8 size=    1280KiB time=00:00:04.46 bitrate=2347.6kbits/s speed=0.0141x elapsed=0:05:16.05    \nframe=  136 fps=0.4 q=29.8 size=    1280KiB time=00:00:04.46 bitrate=2347.6kbits/s speed=0.0141x elapsed=0:05:16.58    \nframe=  136 fps=0.4 q=29.8 size=    1280KiB time=00:00:04.46 bitrate=2347.6kbits/s speed=0.0141x elapsed=0:05:17.13    \nframe=  136 fps=0.4 q=29.8 size=    1280KiB time=00:00:04.46 bitrate=2347.6kbits/s speed=0.0141x elapsed=0:05:17.65    \nframe=  136 fps=0.4 q=29.8 size=    1280KiB time=00:00:04.46 bitrate=2347.6kbits/s speed=0.014x elapsed=0:05:18.17    \nframe=  136 fps=0.4 q=29.8 size=    1280KiB time=00:00:04.46 bitrate=2347.6kbits/s speed=0.014x elapsed=0:05:18.70    \nframe=  136 fps=0.4 q=29.8 size=    1280KiB time=00:00:04.46 bitrate=2347.6kbits/s speed=0.014x elapsed=0:05:19.21    \nframe=  137 fps=0.4 q=32.3 size=    1280KiB time=00:00:04.50 bitrate=2330.2kbits/s speed=0.0141x elapsed=0:05:19.72    \nframe=  137 fps=0.4 q=32.3 size=    1280KiB time=00:00:04.50 bitrate=2330.2kbits/s speed=0.0141x elapsed=0:05:20.24    \nframe=  137 fps=0.4 q=32.3 size=    1280KiB time=00:00:04.50 bitrate=2330.2kbits/s speed=0.014x elapsed=0:05:20.78    \nframe=  137 fps=0.4 q=32.3 size=    1280KiB time=00:00:04.50 bitrate=2330.2kbits/s speed=0.014x elapsed=0:05:21.29    \nframe=  137 fps=0.4 q=32.3 size=    1280KiB time=00:00:04.50 bitrate=2330.2kbits/s speed=0.014x elapsed=0:05:21.81    \nframe=  137 fps=0.4 q=32.3 size=    1280KiB time=00:00:04.50 bitrate=2330.2kbits/s speed=0.014x elapsed=0:05:22.33    \nframe=  138 fps=0.4 q=32.6 size=    1280KiB time=00:00:04.53 bitrate=2313.1kbits/s speed=0.014x elapsed=0:05:22.85    \nframe=  138 fps=0.4 q=32.6 size=    1280KiB time=00:00:04.53 bitrate=2313.1kbits/s speed=0.014x elapsed=0:05:23.37    \nframe=  138 fps=0.4 q=32.6 size=    1280KiB time=00:00:04.53 bitrate=2313.1kbits/s speed=0.014x elapsed=0:05:23.91    \nframe=  138 fps=0.4 q=32.6 size=    1280KiB time=00:00:04.53 bitrate=2313.1kbits/s speed=0.014x elapsed=0:05:24.45    \nframe=  139 fps=0.4 q=33.9 size=    1280KiB time=00:00:04.56 bitrate=2296.2kbits/s speed=0.0141x elapsed=0:05:24.98    \nframe=  139 fps=0.4 q=33.9 size=    1280KiB time=00:00:04.56 bitrate=2296.2kbits/s speed=0.014x elapsed=0:05:25.52    \nframe=  139 fps=0.4 q=33.9 size=    1280KiB time=00:00:04.56 bitrate=2296.2kbits/s speed=0.014x elapsed=0:05:26.05    \nframe=  139 fps=0.4 q=33.9 size=    1280KiB time=00:00:04.56 bitrate=2296.2kbits/s speed=0.014x elapsed=0:05:26.59    \nframe=  139 fps=0.4 q=33.9 size=    1280KiB time=00:00:04.56 bitrate=2296.2kbits/s speed=0.014x elapsed=0:05:27.14    \nframe=  140 fps=0.4 q=35.4 size=    1280KiB time=00:00:04.60 bitrate=2279.6kbits/s speed=0.014x elapsed=0:05:27.70    \nframe=  140 fps=0.4 q=35.4 size=    1280KiB time=00:00:04.60 bitrate=2279.6kbits/s speed=0.014x elapsed=0:05:28.23    \nframe=  140 fps=0.4 q=35.4 size=    1280KiB time=00:00:04.60 bitrate=2279.6kbits/s speed=0.014x elapsed=0:05:28.75    \nframe=  140 fps=0.4 q=35.4 size=    1280KiB time=00:00:04.60 bitrate=2279.6kbits/s speed=0.014x elapsed=0:05:29.26    \nframe=  140 fps=0.4 q=35.4 size=    1280KiB time=00:00:04.60 bitrate=2279.6kbits/s speed=0.0139x elapsed=0:05:29.78    \nframe=  140 fps=0.4 q=35.4 size=    1280KiB time=00:00:04.60 bitrate=2279.6kbits/s speed=0.0139x elapsed=0:05:30.32    \nframe=  141 fps=0.4 q=35.1 size=    1280KiB time=00:00:04.63 bitrate=2263.2kbits/s speed=0.014x elapsed=0:05:30.85    \nframe=  141 fps=0.4 q=35.1 size=    1280KiB time=00:00:04.63 bitrate=2263.2kbits/s speed=0.014x elapsed=0:05:31.37    \nframe=  141 fps=0.4 q=35.1 size=    1280KiB time=00:00:04.63 bitrate=2263.2kbits/s speed=0.014x elapsed=0:05:31.90    \nframe=  141 fps=0.4 q=35.1 size=    1280KiB time=00:00:04.63 bitrate=2263.2kbits/s speed=0.0139x elapsed=0:05:32.43    \nframe=  141 fps=0.4 q=35.1 size=    1280KiB time=00:00:04.63 bitrate=2263.2kbits/s speed=0.0139x elapsed=0:05:32.96    \nframe=  141 fps=0.4 q=35.1 size=    1280KiB time=00:00:04.63 bitrate=2263.2kbits/s speed=0.0139x elapsed=0:05:33.53    \nframe=  141 fps=0.4 q=35.1 size=    1280KiB time=00:00:04.63 bitrate=2263.2kbits/s speed=0.0139x elapsed=0:05:34.06    \nframe=  141 fps=0.4 q=35.1 size=    1280KiB time=00:00:04.63 bitrate=2263.2kbits/s speed=0.0138x elapsed=0:05:34.59    \nframe=  141 fps=0.4 q=35.1 size=    1280KiB time=00:00:04.63 bitrate=2263.2kbits/s speed=0.0138x elapsed=0:05:35.13    \nframe=  141 fps=0.4 q=35.1 size=    1280KiB time=00:00:04.63 bitrate=2263.2kbits/s speed=0.0138x elapsed=0:05:35.65    \nframe=  141 fps=0.4 q=35.1 size=    1280KiB time=00:00:04.63 bitrate=2263.2kbits/s speed=0.0138x elapsed=0:05:36.19    \nframe=  142 fps=0.4 q=30.4 size=    1280KiB time=00:00:04.66 bitrate=2247.0kbits/s speed=0.0139x elapsed=0:05:36.75    \nframe=  142 fps=0.4 q=30.4 size=    1280KiB time=00:00:04.66 bitrate=2247.0kbits/s speed=0.0138x elapsed=0:05:37.28    \nframe=  143 fps=0.4 q=30.3 size=    1280KiB time=00:00:04.70 bitrate=2231.1kbits/s speed=0.0139x elapsed=0:05:37.81    \nframe=  143 fps=0.4 q=30.3 size=    1280KiB time=00:00:04.70 bitrate=2231.1kbits/s speed=0.0139x elapsed=0:05:38.34    \nframe=  143 fps=0.4 q=30.3 size=    1280KiB time=00:00:04.70 bitrate=2231.1kbits/s speed=0.0139x elapsed=0:05:38.87    \nframe=  143 fps=0.4 q=30.3 size=    1280KiB time=00:00:04.70 bitrate=2231.1kbits/s speed=0.0138x elapsed=0:05:39.40    \nframe=  143 fps=0.4 q=30.3 size=    1280KiB time=00:00:04.70 bitrate=2231.1kbits/s speed=0.0138x elapsed=0:05:39.91    \nframe=  143 fps=0.4 q=30.3 size=    1280KiB time=00:00:04.70 bitrate=2231.1kbits/s speed=0.0138x elapsed=0:05:40.45    \nframe=  143 fps=0.4 q=30.3 size=    1280KiB time=00:00:04.70 bitrate=2231.1kbits/s speed=0.0138x elapsed=0:05:40.97    \nframe=  144 fps=0.4 q=30.6 size=    1280KiB time=00:00:04.73 bitrate=2215.4kbits/s speed=0.0139x elapsed=0:05:41.49    \nframe=  144 fps=0.4 q=30.6 size=    1280KiB time=00:00:04.73 bitrate=2215.4kbits/s speed=0.0138x elapsed=0:05:42.02    \nframe=  144 fps=0.4 q=30.6 size=    1280KiB time=00:00:04.73 bitrate=2215.4kbits/s speed=0.0138x elapsed=0:05:42.54    \nframe=  144 fps=0.4 q=30.6 size=    1280KiB time=00:00:04.73 bitrate=2215.4kbits/s speed=0.0138x elapsed=0:05:43.06    \nframe=  144 fps=0.4 q=30.6 size=    1280KiB time=00:00:04.73 bitrate=2215.4kbits/s speed=0.0138x elapsed=0:05:43.60    \nframe=  144 fps=0.4 q=30.6 size=    1280KiB time=00:00:04.73 bitrate=2215.4kbits/s speed=0.0138x elapsed=0:05:44.13    \nframe=  145 fps=0.4 q=31.9 size=    1280KiB time=00:00:04.76 bitrate=2199.9kbits/s speed=0.0138x elapsed=0:05:44.69    \nframe=  145 fps=0.4 q=31.9 size=    1280KiB time=00:00:04.76 bitrate=2199.9kbits/s speed=0.0138x elapsed=0:05:45.24    \nframe=  145 fps=0.4 q=31.9 size=    1280KiB time=00:00:04.76 bitrate=2199.9kbits/s speed=0.0138x elapsed=0:05:45.77    \nframe=  145 fps=0.4 q=31.9 size=    1280KiB time=00:00:04.76 bitrate=2199.9kbits/s speed=0.0138x elapsed=0:05:46.29    \nframe=  145 fps=0.4 q=31.9 size=    1280KiB time=00:00:04.76 bitrate=2199.9kbits/s speed=0.0137x elapsed=0:05:46.81    \nframe=  145 fps=0.4 q=31.9 size=    1280KiB time=00:00:04.76 bitrate=2199.9kbits/s speed=0.0137x elapsed=0:05:47.34    \nframe=  145 fps=0.4 q=31.9 size=    1280KiB time=00:00:04.76 bitrate=2199.9kbits/s speed=0.0137x elapsed=0:05:47.88    \nframe=  146 fps=0.4 q=33.5 size=    1280KiB time=00:00:04.80 bitrate=2184.6kbits/s speed=0.0138x elapsed=0:05:48.40    \nframe=  146 fps=0.4 q=33.5 size=    1280KiB time=00:00:04.80 bitrate=2184.6kbits/s speed=0.0138x elapsed=0:05:48.94    \nframe=  146 fps=0.4 q=33.5 size=    1280KiB time=00:00:04.80 bitrate=2184.6kbits/s speed=0.0137x elapsed=0:05:49.48    \nframe=  146 fps=0.4 q=33.5 size=    1280KiB time=00:00:04.80 bitrate=2184.6kbits/s speed=0.0137x elapsed=0:05:49.99    \nframe=  146 fps=0.4 q=33.5 size=    1280KiB time=00:00:04.80 bitrate=2184.6kbits/s speed=0.0137x elapsed=0:05:50.50    \nframe=  147 fps=0.4 q=33.5 size=    1280KiB time=00:00:04.83 bitrate=2169.5kbits/s speed=0.0138x elapsed=0:05:51.03    \nframe=  147 fps=0.4 q=33.5 size=    1280KiB time=00:00:04.83 bitrate=2169.5kbits/s speed=0.0137x elapsed=0:05:51.55    \nframe=  147 fps=0.4 q=33.5 size=    1280KiB time=00:00:04.83 bitrate=2169.5kbits/s speed=0.0137x elapsed=0:05:52.12    \nframe=  147 fps=0.4 q=33.5 size=    1280KiB time=00:00:04.83 bitrate=2169.5kbits/s speed=0.0137x elapsed=0:05:52.67    \nframe=  147 fps=0.4 q=33.5 size=    1280KiB time=00:00:04.83 bitrate=2169.5kbits/s speed=0.0137x elapsed=0:05:53.19    \nframe=  147 fps=0.4 q=33.5 size=    1280KiB time=00:00:04.83 bitrate=2169.5kbits/s speed=0.0137x elapsed=0:05:53.71    \nframe=  147 fps=0.4 q=33.5 size=    1280KiB time=00:00:04.83 bitrate=2169.5kbits/s speed=0.0136x elapsed=0:05:54.23    \nframe=  147 fps=0.4 q=33.5 size=    1280KiB time=00:00:04.83 bitrate=2169.5kbits/s speed=0.0136x elapsed=0:05:54.76    \nframe=  149 fps=0.4 q=31.8 size=    1280KiB time=00:00:04.90 bitrate=2140.0kbits/s speed=0.0138x elapsed=0:05:55.30    \nframe=  149 fps=0.4 q=31.8 size=    1280KiB time=00:00:04.90 bitrate=2140.0kbits/s speed=0.0138x elapsed=0:05:55.85    \nframe=  149 fps=0.4 q=31.8 size=    1280KiB time=00:00:04.90 bitrate=2140.0kbits/s speed=0.0137x elapsed=0:05:56.37    \nframe=  149 fps=0.4 q=31.8 size=    1280KiB time=00:00:04.90 bitrate=2140.0kbits/s speed=0.0137x elapsed=0:05:56.90    \nframe=  149 fps=0.4 q=31.8 size=    1280KiB time=00:00:04.90 bitrate=2140.0kbits/s speed=0.0137x elapsed=0:05:57.47    \nframe=  149 fps=0.4 q=31.8 size=    1280KiB time=00:00:04.90 bitrate=2140.0kbits/s speed=0.0137x elapsed=0:05:58.03    \n[mp4 @ 000001d69889aa40] Starting second pass: moving the moov atom to the beginning of the file\n[out#0/mp4 @ 000001d699263e00] video:1510KiB audio:0KiB subtitle:0KiB other streams:0KiB global headers:2KiB muxing overhead: 0.338627%\nframe=  150 fps=0.4 q=33.3 Lsize=    1515KiB time=00:00:04.93 bitrate=2515.9kbits/s speed=0.0138x elapsed=0:05:58.25    \nx265 [info]: frame I:      3, Avg QP:34.69  kb/s: 1268.48 \nx265 [info]: frame P:     44, Avg QP:30.55  kb/s: 3830.91 \nx265 [info]: frame B:    103, Avg QP:33.92  kb/s: 1928.04 \nx265 [info]: Weighted P-Frames: Y:0.0% UV:0.0%\n\nencoded 150 frames in 357.79s (0.42 fps), 2473.03 kb/s, Avg QP:32.94\n",
  "seconds": 358.69567584991455,
  "probe_out": {}
}